<?xml version="1.0" encoding="UTF-8"?>
<svg xmlns="http://www.w3.org/2000/svg" xmlns:xlink="http://www.w3.org/1999/xlink" width="34560pt" height="17280pt" viewBox="0 0 34560 17280" version="1.1">
<defs>
<clipPath id="clip1">
  <path d="M 59.039062 59.039062 L 404 59.039062 L 404 17206.558594 L 59.039062 17206.558594 Z M 59.039062 59.039062 "/>
</clipPath>
<clipPath id="clip2">
  <path d="M 403 59.039062 L 749 59.039062 L 749 17206.558594 L 403 17206.558594 Z M 403 59.039062 "/>
</clipPath>
<clipPath id="clip3">
  <path d="M 748 59.039062 L 1094 59.039062 L 1094 17206.558594 L 748 17206.558594 Z M 748 59.039062 "/>
</clipPath>
<clipPath id="clip4">
  <path d="M 1093 59.039062 L 1438 59.039062 L 1438 17206.558594 L 1093 17206.558594 Z M 1093 59.039062 "/>
</clipPath>
<clipPath id="clip5">
  <path d="M 1437 59.039062 L 1783 59.039062 L 1783 17206.558594 L 1437 17206.558594 Z M 1437 59.039062 "/>
</clipPath>
<clipPath id="clip6">
  <path d="M 1782 59.039062 L 2128 59.039062 L 2128 17206.558594 L 1782 17206.558594 Z M 1782 59.039062 "/>
</clipPath>
<clipPath id="clip7">
  <path d="M 2127 59.039062 L 2472 59.039062 L 2472 17206.558594 L 2127 17206.558594 Z M 2127 59.039062 "/>
</clipPath>
<clipPath id="clip8">
  <path d="M 2471 59.039062 L 2817 59.039062 L 2817 17206.558594 L 2471 17206.558594 Z M 2471 59.039062 "/>
</clipPath>
<clipPath id="clip9">
  <path d="M 2816 59.039062 L 3162 59.039062 L 3162 17206.558594 L 2816 17206.558594 Z M 2816 59.039062 "/>
</clipPath>
<clipPath id="clip10">
  <path d="M 3161 59.039062 L 3507 59.039062 L 3507 17206.558594 L 3161 17206.558594 Z M 3161 59.039062 "/>
</clipPath>
<clipPath id="clip11">
  <path d="M 3506 59.039062 L 3851 59.039062 L 3851 17206.558594 L 3506 17206.558594 Z M 3506 59.039062 "/>
</clipPath>
<clipPath id="clip12">
  <path d="M 3850 59.039062 L 4196 59.039062 L 4196 17206.558594 L 3850 17206.558594 Z M 3850 59.039062 "/>
</clipPath>
<clipPath id="clip13">
  <path d="M 4195 59.039062 L 4541 59.039062 L 4541 17206.558594 L 4195 17206.558594 Z M 4195 59.039062 "/>
</clipPath>
<clipPath id="clip14">
  <path d="M 4540 59.039062 L 4885 59.039062 L 4885 17206.558594 L 4540 17206.558594 Z M 4540 59.039062 "/>
</clipPath>
<clipPath id="clip15">
  <path d="M 4884 59.039062 L 5230 59.039062 L 5230 17206.558594 L 4884 17206.558594 Z M 4884 59.039062 "/>
</clipPath>
<clipPath id="clip16">
  <path d="M 5229 59.039062 L 5575 59.039062 L 5575 17206.558594 L 5229 17206.558594 Z M 5229 59.039062 "/>
</clipPath>
<clipPath id="clip17">
  <path d="M 5574 59.039062 L 5920 59.039062 L 5920 17206.558594 L 5574 17206.558594 Z M 5574 59.039062 "/>
</clipPath>
<clipPath id="clip18">
  <path d="M 5919 59.039062 L 6264 59.039062 L 6264 17206.558594 L 5919 17206.558594 Z M 5919 59.039062 "/>
</clipPath>
<clipPath id="clip19">
  <path d="M 6263 59.039062 L 6609 59.039062 L 6609 17206.558594 L 6263 17206.558594 Z M 6263 59.039062 "/>
</clipPath>
<clipPath id="clip20">
  <path d="M 6608 59.039062 L 6954 59.039062 L 6954 17206.558594 L 6608 17206.558594 Z M 6608 59.039062 "/>
</clipPath>
<clipPath id="clip21">
  <path d="M 6953 59.039062 L 7298 59.039062 L 7298 17206.558594 L 6953 17206.558594 Z M 6953 59.039062 "/>
</clipPath>
<clipPath id="clip22">
  <path d="M 7297 59.039062 L 7643 59.039062 L 7643 17206.558594 L 7297 17206.558594 Z M 7297 59.039062 "/>
</clipPath>
<clipPath id="clip23">
  <path d="M 7642 59.039062 L 7988 59.039062 L 7988 17206.558594 L 7642 17206.558594 Z M 7642 59.039062 "/>
</clipPath>
<clipPath id="clip24">
  <path d="M 7987 59.039062 L 8333 59.039062 L 8333 17206.558594 L 7987 17206.558594 Z M 7987 59.039062 "/>
</clipPath>
<clipPath id="clip25">
  <path d="M 8332 59.039062 L 8677 59.039062 L 8677 17206.558594 L 8332 17206.558594 Z M 8332 59.039062 "/>
</clipPath>
<clipPath id="clip26">
  <path d="M 8676 59.039062 L 9022 59.039062 L 9022 17206.558594 L 8676 17206.558594 Z M 8676 59.039062 "/>
</clipPath>
<clipPath id="clip27">
  <path d="M 9021 59.039062 L 9367 59.039062 L 9367 17206.558594 L 9021 17206.558594 Z M 9021 59.039062 "/>
</clipPath>
<clipPath id="clip28">
  <path d="M 9366 59.039062 L 9711 59.039062 L 9711 17206.558594 L 9366 17206.558594 Z M 9366 59.039062 "/>
</clipPath>
<clipPath id="clip29">
  <path d="M 9710 59.039062 L 10056 59.039062 L 10056 17206.558594 L 9710 17206.558594 Z M 9710 59.039062 "/>
</clipPath>
<clipPath id="clip30">
  <path d="M 10055 59.039062 L 10401 59.039062 L 10401 17206.558594 L 10055 17206.558594 Z M 10055 59.039062 "/>
</clipPath>
<clipPath id="clip31">
  <path d="M 10400 59.039062 L 10745 59.039062 L 10745 17206.558594 L 10400 17206.558594 Z M 10400 59.039062 "/>
</clipPath>
<clipPath id="clip32">
  <path d="M 10744 59.039062 L 11090 59.039062 L 11090 17206.558594 L 10744 17206.558594 Z M 10744 59.039062 "/>
</clipPath>
<clipPath id="clip33">
  <path d="M 11089 59.039062 L 11435 59.039062 L 11435 17206.558594 L 11089 17206.558594 Z M 11089 59.039062 "/>
</clipPath>
<clipPath id="clip34">
  <path d="M 11434 59.039062 L 11780 59.039062 L 11780 17206.558594 L 11434 17206.558594 Z M 11434 59.039062 "/>
</clipPath>
<clipPath id="clip35">
  <path d="M 11779 59.039062 L 12124 59.039062 L 12124 17206.558594 L 11779 17206.558594 Z M 11779 59.039062 "/>
</clipPath>
<clipPath id="clip36">
  <path d="M 12123 59.039062 L 12469 59.039062 L 12469 17206.558594 L 12123 17206.558594 Z M 12123 59.039062 "/>
</clipPath>
<clipPath id="clip37">
  <path d="M 12468 59.039062 L 12814 59.039062 L 12814 17206.558594 L 12468 17206.558594 Z M 12468 59.039062 "/>
</clipPath>
<clipPath id="clip38">
  <path d="M 12813 59.039062 L 13158 59.039062 L 13158 17206.558594 L 12813 17206.558594 Z M 12813 59.039062 "/>
</clipPath>
<clipPath id="clip39">
  <path d="M 13157 59.039062 L 13503 59.039062 L 13503 17206.558594 L 13157 17206.558594 Z M 13157 59.039062 "/>
</clipPath>
<clipPath id="clip40">
  <path d="M 13502 59.039062 L 13848 59.039062 L 13848 17206.558594 L 13502 17206.558594 Z M 13502 59.039062 "/>
</clipPath>
<clipPath id="clip41">
  <path d="M 13847 59.039062 L 14193 59.039062 L 14193 17206.558594 L 13847 17206.558594 Z M 13847 59.039062 "/>
</clipPath>
<clipPath id="clip42">
  <path d="M 14192 59.039062 L 14537 59.039062 L 14537 17206.558594 L 14192 17206.558594 Z M 14192 59.039062 "/>
</clipPath>
<clipPath id="clip43">
  <path d="M 14536 59.039062 L 14882 59.039062 L 14882 17206.558594 L 14536 17206.558594 Z M 14536 59.039062 "/>
</clipPath>
<clipPath id="clip44">
  <path d="M 14881 59.039062 L 15227 59.039062 L 15227 17206.558594 L 14881 17206.558594 Z M 14881 59.039062 "/>
</clipPath>
<clipPath id="clip45">
  <path d="M 15226 59.039062 L 15571 59.039062 L 15571 17206.558594 L 15226 17206.558594 Z M 15226 59.039062 "/>
</clipPath>
<clipPath id="clip46">
  <path d="M 15570 59.039062 L 15916 59.039062 L 15916 17206.558594 L 15570 17206.558594 Z M 15570 59.039062 "/>
</clipPath>
<clipPath id="clip47">
  <path d="M 15915 59.039062 L 16261 59.039062 L 16261 17206.558594 L 15915 17206.558594 Z M 15915 59.039062 "/>
</clipPath>
<clipPath id="clip48">
  <path d="M 16260 59.039062 L 16605 59.039062 L 16605 17206.558594 L 16260 17206.558594 Z M 16260 59.039062 "/>
</clipPath>
<clipPath id="clip49">
  <path d="M 16604 59.039062 L 16950 59.039062 L 16950 17206.558594 L 16604 17206.558594 Z M 16604 59.039062 "/>
</clipPath>
<clipPath id="clip50">
  <path d="M 16949 59.039062 L 17295 59.039062 L 17295 17206.558594 L 16949 17206.558594 Z M 16949 59.039062 "/>
</clipPath>
<clipPath id="clip51">
  <path d="M 17294 59.039062 L 17640 59.039062 L 17640 17206.558594 L 17294 17206.558594 Z M 17294 59.039062 "/>
</clipPath>
<clipPath id="clip52">
  <path d="M 17639 59.039062 L 17984 59.039062 L 17984 17206.558594 L 17639 17206.558594 Z M 17639 59.039062 "/>
</clipPath>
<clipPath id="clip53">
  <path d="M 17983 59.039062 L 18329 59.039062 L 18329 17206.558594 L 17983 17206.558594 Z M 17983 59.039062 "/>
</clipPath>
<clipPath id="clip54">
  <path d="M 18328 59.039062 L 18674 59.039062 L 18674 17206.558594 L 18328 17206.558594 Z M 18328 59.039062 "/>
</clipPath>
<clipPath id="clip55">
  <path d="M 18673 59.039062 L 19018 59.039062 L 19018 17206.558594 L 18673 17206.558594 Z M 18673 59.039062 "/>
</clipPath>
<clipPath id="clip56">
  <path d="M 19017 59.039062 L 19363 59.039062 L 19363 17206.558594 L 19017 17206.558594 Z M 19017 59.039062 "/>
</clipPath>
<clipPath id="clip57">
  <path d="M 19362 59.039062 L 19708 59.039062 L 19708 17206.558594 L 19362 17206.558594 Z M 19362 59.039062 "/>
</clipPath>
<clipPath id="clip58">
  <path d="M 19707 59.039062 L 20053 59.039062 L 20053 17206.558594 L 19707 17206.558594 Z M 19707 59.039062 "/>
</clipPath>
<clipPath id="clip59">
  <path d="M 20052 59.039062 L 20397 59.039062 L 20397 17206.558594 L 20052 17206.558594 Z M 20052 59.039062 "/>
</clipPath>
<clipPath id="clip60">
  <path d="M 20396 59.039062 L 20742 59.039062 L 20742 17206.558594 L 20396 17206.558594 Z M 20396 59.039062 "/>
</clipPath>
<clipPath id="clip61">
  <path d="M 20741 59.039062 L 21087 59.039062 L 21087 17206.558594 L 20741 17206.558594 Z M 20741 59.039062 "/>
</clipPath>
<clipPath id="clip62">
  <path d="M 21086 59.039062 L 21431 59.039062 L 21431 17206.558594 L 21086 17206.558594 Z M 21086 59.039062 "/>
</clipPath>
<clipPath id="clip63">
  <path d="M 21430 59.039062 L 21776 59.039062 L 21776 17206.558594 L 21430 17206.558594 Z M 21430 59.039062 "/>
</clipPath>
<clipPath id="clip64">
  <path d="M 21775 59.039062 L 22121 59.039062 L 22121 17206.558594 L 21775 17206.558594 Z M 21775 59.039062 "/>
</clipPath>
<clipPath id="clip65">
  <path d="M 22120 59.039062 L 22466 59.039062 L 22466 17206.558594 L 22120 17206.558594 Z M 22120 59.039062 "/>
</clipPath>
<clipPath id="clip66">
  <path d="M 22465 59.039062 L 22810 59.039062 L 22810 17206.558594 L 22465 17206.558594 Z M 22465 59.039062 "/>
</clipPath>
<clipPath id="clip67">
  <path d="M 22809 59.039062 L 23155 59.039062 L 23155 17206.558594 L 22809 17206.558594 Z M 22809 59.039062 "/>
</clipPath>
<clipPath id="clip68">
  <path d="M 23154 59.039062 L 23500 59.039062 L 23500 17206.558594 L 23154 17206.558594 Z M 23154 59.039062 "/>
</clipPath>
<clipPath id="clip69">
  <path d="M 23499 59.039062 L 23844 59.039062 L 23844 17206.558594 L 23499 17206.558594 Z M 23499 59.039062 "/>
</clipPath>
<clipPath id="clip70">
  <path d="M 23843 59.039062 L 24189 59.039062 L 24189 17206.558594 L 23843 17206.558594 Z M 23843 59.039062 "/>
</clipPath>
<clipPath id="clip71">
  <path d="M 24188 59.039062 L 24534 59.039062 L 24534 17206.558594 L 24188 17206.558594 Z M 24188 59.039062 "/>
</clipPath>
<clipPath id="clip72">
  <path d="M 24533 59.039062 L 24878 59.039062 L 24878 17206.558594 L 24533 17206.558594 Z M 24533 59.039062 "/>
</clipPath>
<clipPath id="clip73">
  <path d="M 24877 59.039062 L 25223 59.039062 L 25223 17206.558594 L 24877 17206.558594 Z M 24877 59.039062 "/>
</clipPath>
<clipPath id="clip74">
  <path d="M 25222 59.039062 L 25568 59.039062 L 25568 17206.558594 L 25222 17206.558594 Z M 25222 59.039062 "/>
</clipPath>
<clipPath id="clip75">
  <path d="M 25567 59.039062 L 25913 59.039062 L 25913 17206.558594 L 25567 17206.558594 Z M 25567 59.039062 "/>
</clipPath>
<clipPath id="clip76">
  <path d="M 25912 59.039062 L 26257 59.039062 L 26257 17206.558594 L 25912 17206.558594 Z M 25912 59.039062 "/>
</clipPath>
<clipPath id="clip77">
  <path d="M 26256 59.039062 L 26602 59.039062 L 26602 17206.558594 L 26256 17206.558594 Z M 26256 59.039062 "/>
</clipPath>
<clipPath id="clip78">
  <path d="M 26601 59.039062 L 26947 59.039062 L 26947 17206.558594 L 26601 17206.558594 Z M 26601 59.039062 "/>
</clipPath>
<clipPath id="clip79">
  <path d="M 26946 59.039062 L 27291 59.039062 L 27291 17206.558594 L 26946 17206.558594 Z M 26946 59.039062 "/>
</clipPath>
<clipPath id="clip80">
  <path d="M 27290 59.039062 L 27636 59.039062 L 27636 17206.558594 L 27290 17206.558594 Z M 27290 59.039062 "/>
</clipPath>
<clipPath id="clip81">
  <path d="M 27635 59.039062 L 27981 59.039062 L 27981 17206.558594 L 27635 17206.558594 Z M 27635 59.039062 "/>
</clipPath>
<clipPath id="clip82">
  <path d="M 27980 59.039062 L 28326 59.039062 L 28326 17206.558594 L 27980 17206.558594 Z M 27980 59.039062 "/>
</clipPath>
<clipPath id="clip83">
  <path d="M 28325 59.039062 L 28670 59.039062 L 28670 17206.558594 L 28325 17206.558594 Z M 28325 59.039062 "/>
</clipPath>
<clipPath id="clip84">
  <path d="M 28669 59.039062 L 29015 59.039062 L 29015 17206.558594 L 28669 17206.558594 Z M 28669 59.039062 "/>
</clipPath>
<clipPath id="clip85">
  <path d="M 29014 59.039062 L 29360 59.039062 L 29360 17206.558594 L 29014 17206.558594 Z M 29014 59.039062 "/>
</clipPath>
<clipPath id="clip86">
  <path d="M 29359 59.039062 L 29704 59.039062 L 29704 17206.558594 L 29359 17206.558594 Z M 29359 59.039062 "/>
</clipPath>
<clipPath id="clip87">
  <path d="M 29703 59.039062 L 30049 59.039062 L 30049 17206.558594 L 29703 17206.558594 Z M 29703 59.039062 "/>
</clipPath>
<clipPath id="clip88">
  <path d="M 30048 59.039062 L 30394 59.039062 L 30394 17206.558594 L 30048 17206.558594 Z M 30048 59.039062 "/>
</clipPath>
<clipPath id="clip89">
  <path d="M 30393 59.039062 L 30738 59.039062 L 30738 17206.558594 L 30393 17206.558594 Z M 30393 59.039062 "/>
</clipPath>
<clipPath id="clip90">
  <path d="M 30737 59.039062 L 31083 59.039062 L 31083 17206.558594 L 30737 17206.558594 Z M 30737 59.039062 "/>
</clipPath>
<clipPath id="clip91">
  <path d="M 31082 59.039062 L 31428 59.039062 L 31428 17206.558594 L 31082 17206.558594 Z M 31082 59.039062 "/>
</clipPath>
<clipPath id="clip92">
  <path d="M 31427 59.039062 L 31773 59.039062 L 31773 17206.558594 L 31427 17206.558594 Z M 31427 59.039062 "/>
</clipPath>
<clipPath id="clip93">
  <path d="M 31772 59.039062 L 32117 59.039062 L 32117 17206.558594 L 31772 17206.558594 Z M 31772 59.039062 "/>
</clipPath>
<clipPath id="clip94">
  <path d="M 32116 59.039062 L 32462 59.039062 L 32462 17206.558594 L 32116 17206.558594 Z M 32116 59.039062 "/>
</clipPath>
<clipPath id="clip95">
  <path d="M 32461 59.039062 L 32807 59.039062 L 32807 17206.558594 L 32461 17206.558594 Z M 32461 59.039062 "/>
</clipPath>
<clipPath id="clip96">
  <path d="M 32806 59.039062 L 33151 59.039062 L 33151 17206.558594 L 32806 17206.558594 Z M 32806 59.039062 "/>
</clipPath>
<clipPath id="clip97">
  <path d="M 33150 59.039062 L 33496 59.039062 L 33496 17206.558594 L 33150 17206.558594 Z M 33150 59.039062 "/>
</clipPath>
<clipPath id="clip98">
  <path d="M 33495 59.039062 L 33841 59.039062 L 33841 17206.558594 L 33495 17206.558594 Z M 33495 59.039062 "/>
</clipPath>
<clipPath id="clip99">
  <path d="M 33840 59.039062 L 34186 59.039062 L 34186 17206.558594 L 33840 17206.558594 Z M 33840 59.039062 "/>
</clipPath>
<clipPath id="clip100">
  <path d="M 34185 59.039062 L 34529.757812 59.039062 L 34529.757812 17206.558594 L 34185 17206.558594 Z M 34185 59.039062 "/>
</clipPath>
</defs>
<g id="surface118">
<rect x="0" y="0" width="34560" height="17280" style="fill:rgb(100%,100%,100%);fill-opacity:1;stroke:none;"/>
<g clip-path="url(#clip1)" clip-rule="nonzero">
<path style=" stroke:none;fill-rule:nonzero;fill:rgb(8.235294%,11.372549%,26.666667%);fill-opacity:1;" d="M 59.039062 17206.558594 L 403.746094 17206.558594 L 403.746094 59.039062 L 59.039062 59.039062 Z M 59.039062 17206.558594 "/>
</g>
<g clip-path="url(#clip2)" clip-rule="nonzero">
<path style=" stroke:none;fill-rule:nonzero;fill:rgb(8.235294%,12.941176%,27.45098%);fill-opacity:1;" d="M 403.746094 17206.558594 L 748.453125 17206.558594 L 748.453125 59.039062 L 403.746094 59.039062 Z M 403.746094 17206.558594 "/>
</g>
<g clip-path="url(#clip3)" clip-rule="nonzero">
<path style=" stroke:none;fill-rule:nonzero;fill:rgb(8.627451%,14.901961%,28.627451%);fill-opacity:1;" d="M 748.453125 17206.558594 L 1093.160156 17206.558594 L 1093.160156 59.039062 L 748.453125 59.039062 Z M 748.453125 17206.558594 "/>
</g>
<g clip-path="url(#clip4)" clip-rule="nonzero">
<path style=" stroke:none;fill-rule:nonzero;fill:rgb(9.019608%,16.862745%,29.803922%);fill-opacity:1;" d="M 1093.160156 17206.558594 L 1437.867188 17206.558594 L 1437.867188 59.039062 L 1093.160156 59.039062 Z M 1093.160156 17206.558594 "/>
</g>
<g clip-path="url(#clip5)" clip-rule="nonzero">
<path style=" stroke:none;fill-rule:nonzero;fill:rgb(9.411765%,18.823529%,30.588235%);fill-opacity:1;" d="M 1437.867188 17206.558594 L 1782.574219 17206.558594 L 1782.574219 59.039062 L 1437.867188 59.039062 Z M 1437.867188 17206.558594 "/>
</g>
<g clip-path="url(#clip6)" clip-rule="nonzero">
<path style=" stroke:none;fill-rule:nonzero;fill:rgb(9.803922%,20.784314%,31.764706%);fill-opacity:1;" d="M 1782.574219 17206.558594 L 2127.28125 17206.558594 L 2127.28125 59.039062 L 1782.574219 59.039062 Z M 1782.574219 17206.558594 "/>
</g>
<g clip-path="url(#clip7)" clip-rule="nonzero">
<path style=" stroke:none;fill-rule:nonzero;fill:rgb(10.196078%,22.745098%,32.941176%);fill-opacity:1;" d="M 2127.28125 17206.558594 L 2471.988281 17206.558594 L 2471.988281 59.039062 L 2127.28125 59.039062 Z M 2127.28125 17206.558594 "/>
</g>
<g clip-path="url(#clip8)" clip-rule="nonzero">
<path style=" stroke:none;fill-rule:nonzero;fill:rgb(10.588235%,24.313725%,34.117647%);fill-opacity:1;" d="M 2471.992188 17206.558594 L 2816.699219 17206.558594 L 2816.699219 59.039062 L 2471.992188 59.039062 Z M 2471.992188 17206.558594 "/>
</g>
<g clip-path="url(#clip9)" clip-rule="nonzero">
<path style=" stroke:none;fill-rule:nonzero;fill:rgb(10.588235%,26.27451%,35.294118%);fill-opacity:1;" d="M 2816.699219 17206.558594 L 3161.40625 17206.558594 L 3161.40625 59.039062 L 2816.699219 59.039062 Z M 2816.699219 17206.558594 "/>
</g>
<g clip-path="url(#clip10)" clip-rule="nonzero">
<path style=" stroke:none;fill-rule:nonzero;fill:rgb(10.588235%,28.235294%,36.470588%);fill-opacity:1;" d="M 3161.40625 17206.558594 L 3506.113281 17206.558594 L 3506.113281 59.039062 L 3161.40625 59.039062 Z M 3161.40625 17206.558594 "/>
</g>
<g clip-path="url(#clip11)" clip-rule="nonzero">
<path style=" stroke:none;fill-rule:nonzero;fill:rgb(10.588235%,29.803922%,37.647059%);fill-opacity:1;" d="M 3506.113281 17206.558594 L 3850.820312 17206.558594 L 3850.820312 59.039062 L 3506.113281 59.039062 Z M 3506.113281 17206.558594 "/>
</g>
<g clip-path="url(#clip12)" clip-rule="nonzero">
<path style=" stroke:none;fill-rule:nonzero;fill:rgb(10.588235%,31.764706%,38.823529%);fill-opacity:1;" d="M 3850.820312 17206.558594 L 4195.527344 17206.558594 L 4195.527344 59.039062 L 3850.820312 59.039062 Z M 3850.820312 17206.558594 "/>
</g>
<g clip-path="url(#clip13)" clip-rule="nonzero">
<path style=" stroke:none;fill-rule:nonzero;fill:rgb(10.588235%,33.72549%,39.607843%);fill-opacity:1;" d="M 4195.527344 17206.558594 L 4540.234375 17206.558594 L 4540.234375 59.039062 L 4195.527344 59.039062 Z M 4195.527344 17206.558594 "/>
</g>
<g clip-path="url(#clip14)" clip-rule="nonzero">
<path style=" stroke:none;fill-rule:nonzero;fill:rgb(9.803922%,35.686275%,40.784314%);fill-opacity:1;" d="M 4540.234375 17206.558594 L 4884.941406 17206.558594 L 4884.941406 59.039062 L 4540.234375 59.039062 Z M 4540.234375 17206.558594 "/>
</g>
<g clip-path="url(#clip15)" clip-rule="nonzero">
<path style=" stroke:none;fill-rule:nonzero;fill:rgb(9.411765%,37.254902%,41.568627%);fill-opacity:1;" d="M 4884.941406 17206.558594 L 5229.648438 17206.558594 L 5229.648438 59.039062 L 4884.941406 59.039062 Z M 4884.941406 17206.558594 "/>
</g>
<g clip-path="url(#clip16)" clip-rule="nonzero">
<path style=" stroke:none;fill-rule:nonzero;fill:rgb(8.627451%,39.215686%,42.745098%);fill-opacity:1;" d="M 5229.648438 17206.558594 L 5574.355469 17206.558594 L 5574.355469 59.039062 L 5229.648438 59.039062 Z M 5229.648438 17206.558594 "/>
</g>
<g clip-path="url(#clip17)" clip-rule="nonzero">
<path style=" stroke:none;fill-rule:nonzero;fill:rgb(8.235294%,41.176471%,43.529412%);fill-opacity:1;" d="M 5574.355469 17206.558594 L 5919.0625 17206.558594 L 5919.0625 59.039062 L 5574.355469 59.039062 Z M 5574.355469 17206.558594 "/>
</g>
<g clip-path="url(#clip18)" clip-rule="nonzero">
<path style=" stroke:none;fill-rule:nonzero;fill:rgb(7.45098%,43.137255%,44.705882%);fill-opacity:1;" d="M 5919.0625 17206.558594 L 6263.769531 17206.558594 L 6263.769531 59.039062 L 5919.0625 59.039062 Z M 5919.0625 17206.558594 "/>
</g>
<g clip-path="url(#clip19)" clip-rule="nonzero">
<path style=" stroke:none;fill-rule:nonzero;fill:rgb(6.666667%,45.098039%,45.490196%);fill-opacity:1;" d="M 6263.769531 17206.558594 L 6608.476562 17206.558594 L 6608.476562 59.039062 L 6263.769531 59.039062 Z M 6263.769531 17206.558594 "/>
</g>
<g clip-path="url(#clip20)" clip-rule="nonzero">
<path style=" stroke:none;fill-rule:nonzero;fill:rgb(7.058824%,47.058824%,46.27451%);fill-opacity:1;" d="M 6608.476562 17206.558594 L 6953.183594 17206.558594 L 6953.183594 59.039062 L 6608.476562 59.039062 Z M 6608.476562 17206.558594 "/>
</g>
<g clip-path="url(#clip21)" clip-rule="nonzero">
<path style=" stroke:none;fill-rule:nonzero;fill:rgb(9.019608%,48.627451%,47.058824%);fill-opacity:1;" d="M 6953.183594 17206.558594 L 7297.890625 17206.558594 L 7297.890625 59.039062 L 6953.183594 59.039062 Z M 6953.183594 17206.558594 "/>
</g>
<g clip-path="url(#clip22)" clip-rule="nonzero">
<path style=" stroke:none;fill-rule:nonzero;fill:rgb(10.588235%,50.588235%,47.45098%);fill-opacity:1;" d="M 7297.890625 17206.558594 L 7642.597656 17206.558594 L 7642.597656 59.039062 L 7297.890625 59.039062 Z M 7297.890625 17206.558594 "/>
</g>
<g clip-path="url(#clip23)" clip-rule="nonzero">
<path style=" stroke:none;fill-rule:nonzero;fill:rgb(12.156863%,52.54902%,48.235294%);fill-opacity:1;" d="M 7642.597656 17206.558594 L 7987.304688 17206.558594 L 7987.304688 59.039062 L 7642.597656 59.039062 Z M 7642.597656 17206.558594 "/>
</g>
<g clip-path="url(#clip24)" clip-rule="nonzero">
<path style=" stroke:none;fill-rule:nonzero;fill:rgb(13.72549%,54.117647%,48.627451%);fill-opacity:1;" d="M 7987.304688 17206.558594 L 8332.011719 17206.558594 L 8332.011719 59.039062 L 7987.304688 59.039062 Z M 7987.304688 17206.558594 "/>
</g>
<g clip-path="url(#clip25)" clip-rule="nonzero">
<path style=" stroke:none;fill-rule:nonzero;fill:rgb(15.294118%,56.078431%,49.019608%);fill-opacity:1;" d="M 8332.011719 17206.558594 L 8676.71875 17206.558594 L 8676.71875 59.039062 L 8332.011719 59.039062 Z M 8332.011719 17206.558594 "/>
</g>
<g clip-path="url(#clip26)" clip-rule="nonzero">
<path style=" stroke:none;fill-rule:nonzero;fill:rgb(17.647059%,57.647059%,49.803922%);fill-opacity:1;" d="M 8676.71875 17206.558594 L 9021.425781 17206.558594 L 9021.425781 59.039062 L 8676.71875 59.039062 Z M 8676.71875 17206.558594 "/>
</g>
<g clip-path="url(#clip27)" clip-rule="nonzero">
<path style=" stroke:none;fill-rule:nonzero;fill:rgb(21.568627%,59.215686%,50.588235%);fill-opacity:1;" d="M 9021.425781 17206.558594 L 9366.132812 17206.558594 L 9366.132812 59.039062 L 9021.425781 59.039062 Z M 9021.425781 17206.558594 "/>
</g>
<g clip-path="url(#clip28)" clip-rule="nonzero">
<path style=" stroke:none;fill-rule:nonzero;fill:rgb(25.490196%,60.784314%,50.980392%);fill-opacity:1;" d="M 9366.132812 17206.558594 L 9710.839844 17206.558594 L 9710.839844 59.039062 L 9366.132812 59.039062 Z M 9366.132812 17206.558594 "/>
</g>
<g clip-path="url(#clip29)" clip-rule="nonzero">
<path style=" stroke:none;fill-rule:nonzero;fill:rgb(29.411765%,62.352941%,51.764706%);fill-opacity:1;" d="M 9710.839844 17206.558594 L 10055.546875 17206.558594 L 10055.546875 59.039062 L 9710.839844 59.039062 Z M 9710.839844 17206.558594 "/>
</g>
<g clip-path="url(#clip30)" clip-rule="nonzero">
<path style=" stroke:none;fill-rule:nonzero;fill:rgb(33.333333%,63.921569%,52.156863%);fill-opacity:1;" d="M 10055.546875 17206.558594 L 10400.253906 17206.558594 L 10400.253906 59.039062 L 10055.546875 59.039062 Z M 10055.546875 17206.558594 "/>
</g>
<g clip-path="url(#clip31)" clip-rule="nonzero">
<path style=" stroke:none;fill-rule:nonzero;fill:rgb(37.254902%,65.490196%,52.941176%);fill-opacity:1;" d="M 10400.257812 17206.558594 L 10744.964844 17206.558594 L 10744.964844 59.039062 L 10400.257812 59.039062 Z M 10400.257812 17206.558594 "/>
</g>
<g clip-path="url(#clip32)" clip-rule="nonzero">
<path style=" stroke:none;fill-rule:nonzero;fill:rgb(41.176471%,67.058824%,53.72549%);fill-opacity:1;" d="M 10744.964844 17206.558594 L 11089.671875 17206.558594 L 11089.671875 59.039062 L 10744.964844 59.039062 Z M 10744.964844 17206.558594 "/>
</g>
<g clip-path="url(#clip33)" clip-rule="nonzero">
<path style=" stroke:none;fill-rule:nonzero;fill:rgb(44.705882%,68.235294%,55.294118%);fill-opacity:1;" d="M 11089.671875 17206.558594 L 11434.378906 17206.558594 L 11434.378906 59.039062 L 11089.671875 59.039062 Z M 11089.671875 17206.558594 "/>
</g>
<g clip-path="url(#clip34)" clip-rule="nonzero">
<path style=" stroke:none;fill-rule:nonzero;fill:rgb(48.235294%,69.803922%,56.862745%);fill-opacity:1;" d="M 11434.378906 17206.558594 L 11779.085938 17206.558594 L 11779.085938 59.039062 L 11434.378906 59.039062 Z M 11434.378906 17206.558594 "/>
</g>
<g clip-path="url(#clip35)" clip-rule="nonzero">
<path style=" stroke:none;fill-rule:nonzero;fill:rgb(51.764706%,70.980392%,58.039216%);fill-opacity:1;" d="M 11779.085938 17206.558594 L 12123.792969 17206.558594 L 12123.792969 59.039062 L 11779.085938 59.039062 Z M 11779.085938 17206.558594 "/>
</g>
<g clip-path="url(#clip36)" clip-rule="nonzero">
<path style=" stroke:none;fill-rule:nonzero;fill:rgb(55.294118%,72.54902%,59.607843%);fill-opacity:1;" d="M 12123.792969 17206.558594 L 12468.5 17206.558594 L 12468.5 59.039062 L 12123.792969 59.039062 Z M 12123.792969 17206.558594 "/>
</g>
<g clip-path="url(#clip37)" clip-rule="nonzero">
<path style=" stroke:none;fill-rule:nonzero;fill:rgb(58.823529%,74.117647%,61.176471%);fill-opacity:1;" d="M 12468.5 17206.558594 L 12813.207031 17206.558594 L 12813.207031 59.039062 L 12468.5 59.039062 Z M 12468.5 17206.558594 "/>
</g>
<g clip-path="url(#clip38)" clip-rule="nonzero">
<path style=" stroke:none;fill-rule:nonzero;fill:rgb(62.352941%,75.294118%,62.745098%);fill-opacity:1;" d="M 12813.207031 17206.558594 L 13157.914062 17206.558594 L 13157.914062 59.039062 L 12813.207031 59.039062 Z M 12813.207031 17206.558594 "/>
</g>
<g clip-path="url(#clip39)" clip-rule="nonzero">
<path style=" stroke:none;fill-rule:nonzero;fill:rgb(65.490196%,76.862745%,65.098039%);fill-opacity:1;" d="M 13157.914062 17206.558594 L 13502.621094 17206.558594 L 13502.621094 59.039062 L 13157.914062 59.039062 Z M 13157.914062 17206.558594 "/>
</g>
<g clip-path="url(#clip40)" clip-rule="nonzero">
<path style=" stroke:none;fill-rule:nonzero;fill:rgb(68.627451%,78.431373%,67.45098%);fill-opacity:1;" d="M 13502.621094 17206.558594 L 13847.328125 17206.558594 L 13847.328125 59.039062 L 13502.621094 59.039062 Z M 13502.621094 17206.558594 "/>
</g>
<g clip-path="url(#clip41)" clip-rule="nonzero">
<path style=" stroke:none;fill-rule:nonzero;fill:rgb(71.764706%,80%,69.803922%);fill-opacity:1;" d="M 13847.328125 17206.558594 L 14192.035156 17206.558594 L 14192.035156 59.039062 L 13847.328125 59.039062 Z M 13847.328125 17206.558594 "/>
</g>
<g clip-path="url(#clip42)" clip-rule="nonzero">
<path style=" stroke:none;fill-rule:nonzero;fill:rgb(74.901961%,81.568627%,72.156863%);fill-opacity:1;" d="M 14192.035156 17206.558594 L 14536.742188 17206.558594 L 14536.742188 59.039062 L 14192.035156 59.039062 Z M 14192.035156 17206.558594 "/>
</g>
<g clip-path="url(#clip43)" clip-rule="nonzero">
<path style=" stroke:none;fill-rule:nonzero;fill:rgb(78.039216%,82.745098%,74.509804%);fill-opacity:1;" d="M 14536.742188 17206.558594 L 14881.449219 17206.558594 L 14881.449219 59.039062 L 14536.742188 59.039062 Z M 14536.742188 17206.558594 "/>
</g>
<g clip-path="url(#clip44)" clip-rule="nonzero">
<path style=" stroke:none;fill-rule:nonzero;fill:rgb(81.176471%,84.313725%,76.862745%);fill-opacity:1;" d="M 14881.449219 17206.558594 L 15226.15625 17206.558594 L 15226.15625 59.039062 L 14881.449219 59.039062 Z M 14881.449219 17206.558594 "/>
</g>
<g clip-path="url(#clip45)" clip-rule="nonzero">
<path style=" stroke:none;fill-rule:nonzero;fill:rgb(83.921569%,86.27451%,79.607843%);fill-opacity:1;" d="M 15226.15625 17206.558594 L 15570.863281 17206.558594 L 15570.863281 59.039062 L 15226.15625 59.039062 Z M 15226.15625 17206.558594 "/>
</g>
<g clip-path="url(#clip46)" clip-rule="nonzero">
<path style=" stroke:none;fill-rule:nonzero;fill:rgb(86.666667%,87.843137%,82.352941%);fill-opacity:1;" d="M 15570.863281 17206.558594 L 15915.570312 17206.558594 L 15915.570312 59.039062 L 15570.863281 59.039062 Z M 15570.863281 17206.558594 "/>
</g>
<g clip-path="url(#clip47)" clip-rule="nonzero">
<path style=" stroke:none;fill-rule:nonzero;fill:rgb(89.411765%,89.803922%,85.098039%);fill-opacity:1;" d="M 15915.570312 17206.558594 L 16260.277344 17206.558594 L 16260.277344 59.039062 L 15915.570312 59.039062 Z M 15915.570312 17206.558594 "/>
</g>
<g clip-path="url(#clip48)" clip-rule="nonzero">
<path style=" stroke:none;fill-rule:nonzero;fill:rgb(92.156863%,91.372549%,87.843137%);fill-opacity:1;" d="M 16260.277344 17206.558594 L 16604.984375 17206.558594 L 16604.984375 59.039062 L 16260.277344 59.039062 Z M 16260.277344 17206.558594 "/>
</g>
<g clip-path="url(#clip49)" clip-rule="nonzero">
<path style=" stroke:none;fill-rule:nonzero;fill:rgb(94.901961%,93.333333%,90.980392%);fill-opacity:1;" d="M 16604.984375 17206.558594 L 16949.691406 17206.558594 L 16949.691406 59.039062 L 16604.984375 59.039062 Z M 16604.984375 17206.558594 "/>
</g>
<g clip-path="url(#clip50)" clip-rule="nonzero">
<path style=" stroke:none;fill-rule:nonzero;fill:rgb(97.647059%,94.901961%,93.72549%);fill-opacity:1;" d="M 16949.691406 17206.558594 L 17294.398438 17206.558594 L 17294.398438 59.039062 L 16949.691406 59.039062 Z M 16949.691406 17206.558594 "/>
</g>
<g clip-path="url(#clip51)" clip-rule="nonzero">
<path style=" stroke:none;fill-rule:nonzero;fill:rgb(98.431373%,94.509804%,93.333333%);fill-opacity:1;" d="M 17294.398438 17206.558594 L 17639.105469 17206.558594 L 17639.105469 59.039062 L 17294.398438 59.039062 Z M 17294.398438 17206.558594 "/>
</g>
<g clip-path="url(#clip52)" clip-rule="nonzero">
<path style=" stroke:none;fill-rule:nonzero;fill:rgb(97.647059%,92.156863%,90.196078%);fill-opacity:1;" d="M 17639.105469 17206.558594 L 17983.8125 17206.558594 L 17983.8125 59.039062 L 17639.105469 59.039062 Z M 17639.105469 17206.558594 "/>
</g>
<g clip-path="url(#clip53)" clip-rule="nonzero">
<path style=" stroke:none;fill-rule:nonzero;fill:rgb(96.470588%,89.803922%,86.666667%);fill-opacity:1;" d="M 17983.8125 17206.558594 L 18328.519531 17206.558594 L 18328.519531 59.039062 L 17983.8125 59.039062 Z M 17983.8125 17206.558594 "/>
</g>
<g clip-path="url(#clip54)" clip-rule="nonzero">
<path style=" stroke:none;fill-rule:nonzero;fill:rgb(95.294118%,87.058824%,83.529412%);fill-opacity:1;" d="M 18328.523438 17206.558594 L 18673.230469 17206.558594 L 18673.230469 59.039062 L 18328.523438 59.039062 Z M 18328.523438 17206.558594 "/>
</g>
<g clip-path="url(#clip55)" clip-rule="nonzero">
<path style=" stroke:none;fill-rule:nonzero;fill:rgb(94.509804%,84.705882%,80.392157%);fill-opacity:1;" d="M 18673.230469 17206.558594 L 19017.9375 17206.558594 L 19017.9375 59.039062 L 18673.230469 59.039062 Z M 18673.230469 17206.558594 "/>
</g>
<g clip-path="url(#clip56)" clip-rule="nonzero">
<path style=" stroke:none;fill-rule:nonzero;fill:rgb(93.333333%,82.352941%,76.862745%);fill-opacity:1;" d="M 19017.9375 17206.558594 L 19362.644531 17206.558594 L 19362.644531 59.039062 L 19017.9375 59.039062 Z M 19017.9375 17206.558594 "/>
</g>
<g clip-path="url(#clip57)" clip-rule="nonzero">
<path style=" stroke:none;fill-rule:nonzero;fill:rgb(92.54902%,80%,73.72549%);fill-opacity:1;" d="M 19362.644531 17206.558594 L 19707.351562 17206.558594 L 19707.351562 59.039062 L 19362.644531 59.039062 Z M 19362.644531 17206.558594 "/>
</g>
<g clip-path="url(#clip58)" clip-rule="nonzero">
<path style=" stroke:none;fill-rule:nonzero;fill:rgb(91.764706%,77.254902%,70.588235%);fill-opacity:1;" d="M 19707.351562 17206.558594 L 20052.058594 17206.558594 L 20052.058594 59.039062 L 19707.351562 59.039062 Z M 19707.351562 17206.558594 "/>
</g>
<g clip-path="url(#clip59)" clip-rule="nonzero">
<path style=" stroke:none;fill-rule:nonzero;fill:rgb(90.980392%,74.901961%,67.843137%);fill-opacity:1;" d="M 20052.058594 17206.558594 L 20396.765625 17206.558594 L 20396.765625 59.039062 L 20052.058594 59.039062 Z M 20052.058594 17206.558594 "/>
</g>
<g clip-path="url(#clip60)" clip-rule="nonzero">
<path style=" stroke:none;fill-rule:nonzero;fill:rgb(90.588235%,72.54902%,64.705882%);fill-opacity:1;" d="M 20396.765625 17206.558594 L 20741.472656 17206.558594 L 20741.472656 59.039062 L 20396.765625 59.039062 Z M 20396.765625 17206.558594 "/>
</g>
<g clip-path="url(#clip61)" clip-rule="nonzero">
<path style=" stroke:none;fill-rule:nonzero;fill:rgb(89.803922%,69.803922%,61.568627%);fill-opacity:1;" d="M 20741.472656 17206.558594 L 21086.179688 17206.558594 L 21086.179688 59.039062 L 20741.472656 59.039062 Z M 20741.472656 17206.558594 "/>
</g>
<g clip-path="url(#clip62)" clip-rule="nonzero">
<path style=" stroke:none;fill-rule:nonzero;fill:rgb(89.019608%,67.45098%,58.431373%);fill-opacity:1;" d="M 21086.179688 17206.558594 L 21430.886719 17206.558594 L 21430.886719 59.039062 L 21086.179688 59.039062 Z M 21086.179688 17206.558594 "/>
</g>
<g clip-path="url(#clip63)" clip-rule="nonzero">
<path style=" stroke:none;fill-rule:nonzero;fill:rgb(88.235294%,65.098039%,55.686275%);fill-opacity:1;" d="M 21430.886719 17206.558594 L 21775.59375 17206.558594 L 21775.59375 59.039062 L 21430.886719 59.039062 Z M 21430.886719 17206.558594 "/>
</g>
<g clip-path="url(#clip64)" clip-rule="nonzero">
<path style=" stroke:none;fill-rule:nonzero;fill:rgb(87.45098%,62.352941%,53.333333%);fill-opacity:1;" d="M 21775.59375 17206.558594 L 22120.300781 17206.558594 L 22120.300781 59.039062 L 21775.59375 59.039062 Z M 21775.59375 17206.558594 "/>
</g>
<g clip-path="url(#clip65)" clip-rule="nonzero">
<path style=" stroke:none;fill-rule:nonzero;fill:rgb(86.666667%,60%,51.372549%);fill-opacity:1;" d="M 22120.300781 17206.558594 L 22465.007812 17206.558594 L 22465.007812 59.039062 L 22120.300781 59.039062 Z M 22120.300781 17206.558594 "/>
</g>
<g clip-path="url(#clip66)" clip-rule="nonzero">
<path style=" stroke:none;fill-rule:nonzero;fill:rgb(85.882353%,57.254902%,49.019608%);fill-opacity:1;" d="M 22465.007812 17206.558594 L 22809.714844 17206.558594 L 22809.714844 59.039062 L 22465.007812 59.039062 Z M 22465.007812 17206.558594 "/>
</g>
<g clip-path="url(#clip67)" clip-rule="nonzero">
<path style=" stroke:none;fill-rule:nonzero;fill:rgb(85.490196%,54.901961%,47.058824%);fill-opacity:1;" d="M 22809.714844 17206.558594 L 23154.421875 17206.558594 L 23154.421875 59.039062 L 22809.714844 59.039062 Z M 22809.714844 17206.558594 "/>
</g>
<g clip-path="url(#clip68)" clip-rule="nonzero">
<path style=" stroke:none;fill-rule:nonzero;fill:rgb(84.705882%,52.156863%,44.705882%);fill-opacity:1;" d="M 23154.421875 17206.558594 L 23499.128906 17206.558594 L 23499.128906 59.039062 L 23154.421875 59.039062 Z M 23154.421875 17206.558594 "/>
</g>
<g clip-path="url(#clip69)" clip-rule="nonzero">
<path style=" stroke:none;fill-rule:nonzero;fill:rgb(83.921569%,49.803922%,42.745098%);fill-opacity:1;" d="M 23499.128906 17206.558594 L 23843.835938 17206.558594 L 23843.835938 59.039062 L 23499.128906 59.039062 Z M 23499.128906 17206.558594 "/>
</g>
<g clip-path="url(#clip70)" clip-rule="nonzero">
<path style=" stroke:none;fill-rule:nonzero;fill:rgb(82.745098%,47.45098%,41.960784%);fill-opacity:1;" d="M 23843.835938 17206.558594 L 24188.542969 17206.558594 L 24188.542969 59.039062 L 23843.835938 59.039062 Z M 23843.835938 17206.558594 "/>
</g>
<g clip-path="url(#clip71)" clip-rule="nonzero">
<path style=" stroke:none;fill-rule:nonzero;fill:rgb(81.568627%,45.098039%,41.176471%);fill-opacity:1;" d="M 24188.542969 17206.558594 L 24533.25 17206.558594 L 24533.25 59.039062 L 24188.542969 59.039062 Z M 24188.542969 17206.558594 "/>
</g>
<g clip-path="url(#clip72)" clip-rule="nonzero">
<path style=" stroke:none;fill-rule:nonzero;fill:rgb(80%,42.352941%,40.392157%);fill-opacity:1;" d="M 24533.25 17206.558594 L 24877.957031 17206.558594 L 24877.957031 59.039062 L 24533.25 59.039062 Z M 24533.25 17206.558594 "/>
</g>
<g clip-path="url(#clip73)" clip-rule="nonzero">
<path style=" stroke:none;fill-rule:nonzero;fill:rgb(78.823529%,40%,39.607843%);fill-opacity:1;" d="M 24877.957031 17206.558594 L 25222.664062 17206.558594 L 25222.664062 59.039062 L 24877.957031 59.039062 Z M 24877.957031 17206.558594 "/>
</g>
<g clip-path="url(#clip74)" clip-rule="nonzero">
<path style=" stroke:none;fill-rule:nonzero;fill:rgb(77.647059%,37.647059%,38.823529%);fill-opacity:1;" d="M 25222.664062 17206.558594 L 25567.371094 17206.558594 L 25567.371094 59.039062 L 25222.664062 59.039062 Z M 25222.664062 17206.558594 "/>
</g>
<g clip-path="url(#clip75)" clip-rule="nonzero">
<path style=" stroke:none;fill-rule:nonzero;fill:rgb(76.470588%,35.294118%,38.039216%);fill-opacity:1;" d="M 25567.371094 17206.558594 L 25912.078125 17206.558594 L 25912.078125 59.039062 L 25567.371094 59.039062 Z M 25567.371094 17206.558594 "/>
</g>
<g clip-path="url(#clip76)" clip-rule="nonzero">
<path style=" stroke:none;fill-rule:nonzero;fill:rgb(74.901961%,33.333333%,37.647059%);fill-opacity:1;" d="M 25912.078125 17206.558594 L 26256.785156 17206.558594 L 26256.785156 59.039062 L 25912.078125 59.039062 Z M 25912.078125 17206.558594 "/>
</g>
<g clip-path="url(#clip77)" clip-rule="nonzero">
<path style=" stroke:none;fill-rule:nonzero;fill:rgb(73.333333%,30.980392%,37.647059%);fill-opacity:1;" d="M 26256.789062 17206.558594 L 26601.496094 17206.558594 L 26601.496094 59.039062 L 26256.789062 59.039062 Z M 26256.789062 17206.558594 "/>
</g>
<g clip-path="url(#clip78)" clip-rule="nonzero">
<path style=" stroke:none;fill-rule:nonzero;fill:rgb(71.372549%,29.019608%,37.647059%);fill-opacity:1;" d="M 26601.496094 17206.558594 L 26946.203125 17206.558594 L 26946.203125 59.039062 L 26601.496094 59.039062 Z M 26601.496094 17206.558594 "/>
</g>
<g clip-path="url(#clip79)" clip-rule="nonzero">
<path style=" stroke:none;fill-rule:nonzero;fill:rgb(69.803922%,27.058824%,37.647059%);fill-opacity:1;" d="M 26946.203125 17206.558594 L 27290.910156 17206.558594 L 27290.910156 59.039062 L 26946.203125 59.039062 Z M 26946.203125 17206.558594 "/>
</g>
<g clip-path="url(#clip80)" clip-rule="nonzero">
<path style=" stroke:none;fill-rule:nonzero;fill:rgb(67.843137%,25.098039%,37.647059%);fill-opacity:1;" d="M 27290.910156 17206.558594 L 27635.617188 17206.558594 L 27635.617188 59.039062 L 27290.910156 59.039062 Z M 27290.910156 17206.558594 "/>
</g>
<g clip-path="url(#clip81)" clip-rule="nonzero">
<path style=" stroke:none;fill-rule:nonzero;fill:rgb(65.882353%,23.137255%,37.647059%);fill-opacity:1;" d="M 27635.617188 17206.558594 L 27980.324219 17206.558594 L 27980.324219 59.039062 L 27635.617188 59.039062 Z M 27635.617188 17206.558594 "/>
</g>
<g clip-path="url(#clip82)" clip-rule="nonzero">
<path style=" stroke:none;fill-rule:nonzero;fill:rgb(63.921569%,21.176471%,37.647059%);fill-opacity:1;" d="M 27980.324219 17206.558594 L 28325.03125 17206.558594 L 28325.03125 59.039062 L 27980.324219 59.039062 Z M 27980.324219 17206.558594 "/>
</g>
<g clip-path="url(#clip83)" clip-rule="nonzero">
<path style=" stroke:none;fill-rule:nonzero;fill:rgb(61.960784%,19.607843%,37.647059%);fill-opacity:1;" d="M 28325.03125 17206.558594 L 28669.738281 17206.558594 L 28669.738281 59.039062 L 28325.03125 59.039062 Z M 28325.03125 17206.558594 "/>
</g>
<g clip-path="url(#clip84)" clip-rule="nonzero">
<path style=" stroke:none;fill-rule:nonzero;fill:rgb(59.607843%,18.039216%,37.647059%);fill-opacity:1;" d="M 28669.738281 17206.558594 L 29014.445312 17206.558594 L 29014.445312 59.039062 L 28669.738281 59.039062 Z M 28669.738281 17206.558594 "/>
</g>
<g clip-path="url(#clip85)" clip-rule="nonzero">
<path style=" stroke:none;fill-rule:nonzero;fill:rgb(57.647059%,16.470588%,37.647059%);fill-opacity:1;" d="M 29014.445312 17206.558594 L 29359.152344 17206.558594 L 29359.152344 59.039062 L 29014.445312 59.039062 Z M 29014.445312 17206.558594 "/>
</g>
<g clip-path="url(#clip86)" clip-rule="nonzero">
<path style=" stroke:none;fill-rule:nonzero;fill:rgb(55.294118%,14.509804%,37.647059%);fill-opacity:1;" d="M 29359.152344 17206.558594 L 29703.859375 17206.558594 L 29703.859375 59.039062 L 29359.152344 59.039062 Z M 29359.152344 17206.558594 "/>
</g>
<g clip-path="url(#clip87)" clip-rule="nonzero">
<path style=" stroke:none;fill-rule:nonzero;fill:rgb(53.333333%,12.941176%,37.647059%);fill-opacity:1;" d="M 29703.859375 17206.558594 L 30048.566406 17206.558594 L 30048.566406 59.039062 L 29703.859375 59.039062 Z M 29703.859375 17206.558594 "/>
</g>
<g clip-path="url(#clip88)" clip-rule="nonzero">
<path style=" stroke:none;fill-rule:nonzero;fill:rgb(50.980392%,11.764706%,37.254902%);fill-opacity:1;" d="M 30048.566406 17206.558594 L 30393.273438 17206.558594 L 30393.273438 59.039062 L 30048.566406 59.039062 Z M 30048.566406 17206.558594 "/>
</g>
<g clip-path="url(#clip89)" clip-rule="nonzero">
<path style=" stroke:none;fill-rule:nonzero;fill:rgb(48.235294%,10.980392%,36.470588%);fill-opacity:1;" d="M 30393.273438 17206.558594 L 30737.980469 17206.558594 L 30737.980469 59.039062 L 30393.273438 59.039062 Z M 30393.273438 17206.558594 "/>
</g>
<g clip-path="url(#clip90)" clip-rule="nonzero">
<path style=" stroke:none;fill-rule:nonzero;fill:rgb(45.882353%,10.196078%,35.686275%);fill-opacity:1;" d="M 30737.980469 17206.558594 L 31082.6875 17206.558594 L 31082.6875 59.039062 L 30737.980469 59.039062 Z M 30737.980469 17206.558594 "/>
</g>
<g clip-path="url(#clip91)" clip-rule="nonzero">
<path style=" stroke:none;fill-rule:nonzero;fill:rgb(43.137255%,9.411765%,34.509804%);fill-opacity:1;" d="M 31082.6875 17206.558594 L 31427.394531 17206.558594 L 31427.394531 59.039062 L 31082.6875 59.039062 Z M 31082.6875 17206.558594 "/>
</g>
<g clip-path="url(#clip92)" clip-rule="nonzero">
<path style=" stroke:none;fill-rule:nonzero;fill:rgb(40.784314%,9.019608%,33.72549%);fill-opacity:1;" d="M 31427.394531 17206.558594 L 31772.101562 17206.558594 L 31772.101562 59.039062 L 31427.394531 59.039062 Z M 31427.394531 17206.558594 "/>
</g>
<g clip-path="url(#clip93)" clip-rule="nonzero">
<path style=" stroke:none;fill-rule:nonzero;fill:rgb(38.039216%,8.235294%,32.941176%);fill-opacity:1;" d="M 31772.101562 17206.558594 L 32116.808594 17206.558594 L 32116.808594 59.039062 L 31772.101562 59.039062 Z M 31772.101562 17206.558594 "/>
</g>
<g clip-path="url(#clip94)" clip-rule="nonzero">
<path style=" stroke:none;fill-rule:nonzero;fill:rgb(35.294118%,7.45098%,32.156863%);fill-opacity:1;" d="M 32116.808594 17206.558594 L 32461.515625 17206.558594 L 32461.515625 59.039062 L 32116.808594 59.039062 Z M 32116.808594 17206.558594 "/>
</g>
<g clip-path="url(#clip95)" clip-rule="nonzero">
<path style=" stroke:none;fill-rule:nonzero;fill:rgb(32.941176%,7.058824%,30.196078%);fill-opacity:1;" d="M 32461.515625 17206.558594 L 32806.222656 17206.558594 L 32806.222656 59.039062 L 32461.515625 59.039062 Z M 32461.515625 17206.558594 "/>
</g>
<g clip-path="url(#clip96)" clip-rule="nonzero">
<path style=" stroke:none;fill-rule:nonzero;fill:rgb(30.196078%,6.666667%,28.235294%);fill-opacity:1;" d="M 32806.222656 17206.558594 L 33150.929688 17206.558594 L 33150.929688 59.039062 L 32806.222656 59.039062 Z M 32806.222656 17206.558594 "/>
</g>
<g clip-path="url(#clip97)" clip-rule="nonzero">
<path style=" stroke:none;fill-rule:nonzero;fill:rgb(27.843137%,6.27451%,26.27451%);fill-opacity:1;" d="M 33150.929688 17206.558594 L 33495.636719 17206.558594 L 33495.636719 59.039062 L 33150.929688 59.039062 Z M 33150.929688 17206.558594 "/>
</g>
<g clip-path="url(#clip98)" clip-rule="nonzero">
<path style=" stroke:none;fill-rule:nonzero;fill:rgb(25.098039%,5.882353%,24.313725%);fill-opacity:1;" d="M 33495.636719 17206.558594 L 33840.34375 17206.558594 L 33840.34375 59.039062 L 33495.636719 59.039062 Z M 33495.636719 17206.558594 "/>
</g>
<g clip-path="url(#clip99)" clip-rule="nonzero">
<path style=" stroke:none;fill-rule:nonzero;fill:rgb(22.745098%,5.490196%,22.352941%);fill-opacity:1;" d="M 33840.34375 17206.558594 L 34185.050781 17206.558594 L 34185.050781 59.039062 L 33840.34375 59.039062 Z M 33840.34375 17206.558594 "/>
</g>
<g clip-path="url(#clip100)" clip-rule="nonzero">
<path style=" stroke:none;fill-rule:nonzero;fill:rgb(20.392157%,5.098039%,20.784314%);fill-opacity:1;" d="M 34185.054688 17206.558594 L 34529.761719 17206.558594 L 34529.761719 59.039062 L 34185.054688 59.039062 Z M 34185.054688 17206.558594 "/>
</g>
</g>
</svg>
