<?xml version="1.0" encoding="utf-8" standalone="no"?>
<!DOCTYPE svg PUBLIC "-//W3C//DTD SVG 1.1//EN"
  "http://www.w3.org/Graphics/SVG/1.1/DTD/svg11.dtd">
<!-- Created with matplotlib (https://matplotlib.org/) -->
<svg height="288pt" version="1.1" viewBox="0 0 432 288" width="432pt" xmlns="http://www.w3.org/2000/svg" xmlns:xlink="http://www.w3.org/1999/xlink">
 <defs>
  <style type="text/css">
*{stroke-linecap:butt;stroke-linejoin:round;}
  </style>
 </defs>
 <g id="figure_1">
  <g id="patch_1">
   <path d="M 0 288 
L 432 288 
L 432 0 
L 0 0 
z
" style="fill:#ffffff;"/>
  </g>
  <g id="axes_1">
   <g id="patch_2">
    <path d="M 54 252 
L 388.8 252 
L 388.8 34.56 
L 54 34.56 
z
" style="fill:#ffffff;"/>
   </g>
   <g id="matplotlib.axis_1">
    <g id="xtick_1">
     <g id="line2d_1">
      <defs>
       <path d="M 0 0 
L 0 6 
" id="m87b022e354" style="stroke:#262626;stroke-width:1.25;"/>
      </defs>
      <g>
       <use style="fill:#262626;stroke:#262626;stroke-width:1.25;" x="54" xlink:href="#m87b022e354" y="252"/>
      </g>
     </g>
     <g id="text_1">
      <!-- 0.0 -->
      <defs>
       <path d="M 51.703125 34.421875 
Q 51.703125 17.1875 45.625 8.09375 
Q 39.546875 -0.984375 27.6875 -0.984375 
Q 15.828125 -0.984375 9.859375 8.046875 
Q 3.90625 17.09375 3.90625 34.421875 
Q 3.90625 52.15625 9.6875 60.984375 
Q 15.484375 69.828125 27.984375 69.828125 
Q 40.140625 69.828125 45.921875 60.890625 
Q 51.703125 51.953125 51.703125 34.421875 
z
M 42.78125 34.421875 
Q 42.78125 49.3125 39.328125 56 
Q 35.890625 62.703125 27.984375 62.703125 
Q 19.875 62.703125 16.328125 56.109375 
Q 12.796875 49.515625 12.796875 34.421875 
Q 12.796875 19.78125 16.375 12.984375 
Q 19.96875 6.203125 27.78125 6.203125 
Q 35.546875 6.203125 39.15625 13.125 
Q 42.78125 20.0625 42.78125 34.421875 
z
" id="LiberationSans-48"/>
       <path d="M 9.125 0 
L 9.125 10.6875 
L 18.65625 10.6875 
L 18.65625 0 
z
" id="LiberationSans-46"/>
      </defs>
      <g style="fill:#262626;" transform="translate(42.5325 273.457344)scale(0.165 -0.165)">
       <use xlink:href="#LiberationSans-48"/>
       <use x="55.615234" xlink:href="#LiberationSans-46"/>
       <use x="83.398438" xlink:href="#LiberationSans-48"/>
      </g>
     </g>
    </g>
    <g id="xtick_2">
     <g id="line2d_2">
      <g>
       <use style="fill:#262626;stroke:#262626;stroke-width:1.25;" x="120.96" xlink:href="#m87b022e354" y="252"/>
      </g>
     </g>
     <g id="text_2">
      <!-- 0.2 -->
      <defs>
       <path d="M 5.03125 0 
L 5.03125 6.203125 
Q 7.515625 11.921875 11.109375 16.28125 
Q 14.703125 20.65625 18.65625 24.1875 
Q 22.609375 27.734375 26.484375 30.765625 
Q 30.375 33.796875 33.5 36.8125 
Q 36.625 39.84375 38.546875 43.15625 
Q 40.484375 46.484375 40.484375 50.6875 
Q 40.484375 56.34375 37.15625 59.46875 
Q 33.84375 62.59375 27.9375 62.59375 
Q 22.3125 62.59375 18.671875 59.546875 
Q 15.046875 56.5 14.40625 50.984375 
L 5.421875 51.8125 
Q 6.390625 60.0625 12.421875 64.9375 
Q 18.453125 69.828125 27.9375 69.828125 
Q 38.328125 69.828125 43.921875 64.921875 
Q 49.515625 60.015625 49.515625 50.984375 
Q 49.515625 46.96875 47.671875 43.015625 
Q 45.84375 39.0625 42.234375 35.109375 
Q 38.625 31.15625 28.421875 22.859375 
Q 22.796875 18.265625 19.46875 14.578125 
Q 16.15625 10.890625 14.703125 7.46875 
L 50.59375 7.46875 
L 50.59375 0 
z
" id="LiberationSans-50"/>
      </defs>
      <g style="fill:#262626;" transform="translate(109.4925 273.457344)scale(0.165 -0.165)">
       <use xlink:href="#LiberationSans-48"/>
       <use x="55.615234" xlink:href="#LiberationSans-46"/>
       <use x="83.398438" xlink:href="#LiberationSans-50"/>
      </g>
     </g>
    </g>
    <g id="xtick_3">
     <g id="line2d_3">
      <g>
       <use style="fill:#262626;stroke:#262626;stroke-width:1.25;" x="187.92" xlink:href="#m87b022e354" y="252"/>
      </g>
     </g>
     <g id="text_3">
      <!-- 0.4 -->
      <defs>
       <path d="M 43.015625 15.578125 
L 43.015625 0 
L 34.71875 0 
L 34.71875 15.578125 
L 2.296875 15.578125 
L 2.296875 22.40625 
L 33.796875 68.796875 
L 43.015625 68.796875 
L 43.015625 22.515625 
L 52.6875 22.515625 
L 52.6875 15.578125 
z
M 34.71875 58.890625 
Q 34.625 58.59375 33.34375 56.296875 
Q 32.078125 54 31.453125 53.078125 
L 13.8125 27.09375 
L 11.1875 23.484375 
L 10.40625 22.515625 
L 34.71875 22.515625 
z
" id="LiberationSans-52"/>
      </defs>
      <g style="fill:#262626;" transform="translate(176.4525 273.457344)scale(0.165 -0.165)">
       <use xlink:href="#LiberationSans-48"/>
       <use x="55.615234" xlink:href="#LiberationSans-46"/>
       <use x="83.398438" xlink:href="#LiberationSans-52"/>
      </g>
     </g>
    </g>
    <g id="xtick_4">
     <g id="line2d_4">
      <g>
       <use style="fill:#262626;stroke:#262626;stroke-width:1.25;" x="254.88" xlink:href="#m87b022e354" y="252"/>
      </g>
     </g>
     <g id="text_4">
      <!-- 0.6 -->
      <defs>
       <path d="M 51.21875 22.515625 
Q 51.21875 11.625 45.3125 5.3125 
Q 39.40625 -0.984375 29 -0.984375 
Q 17.390625 -0.984375 11.234375 7.65625 
Q 5.078125 16.3125 5.078125 32.8125 
Q 5.078125 50.6875 11.46875 60.25 
Q 17.875 69.828125 29.6875 69.828125 
Q 45.265625 69.828125 49.3125 55.8125 
L 40.921875 54.296875 
Q 38.328125 62.703125 29.59375 62.703125 
Q 22.078125 62.703125 17.9375 55.6875 
Q 13.8125 48.6875 13.8125 35.40625 
Q 16.21875 39.84375 20.5625 42.15625 
Q 24.90625 44.484375 30.515625 44.484375 
Q 40.046875 44.484375 45.625 38.515625 
Q 51.21875 32.5625 51.21875 22.515625 
z
M 42.28125 22.125 
Q 42.28125 29.59375 38.625 33.640625 
Q 34.96875 37.703125 28.421875 37.703125 
Q 22.265625 37.703125 18.484375 34.109375 
Q 14.703125 30.515625 14.703125 24.21875 
Q 14.703125 16.265625 18.625 11.1875 
Q 22.5625 6.109375 28.71875 6.109375 
Q 35.0625 6.109375 38.671875 10.375 
Q 42.28125 14.65625 42.28125 22.125 
z
" id="LiberationSans-54"/>
      </defs>
      <g style="fill:#262626;" transform="translate(243.4125 273.457344)scale(0.165 -0.165)">
       <use xlink:href="#LiberationSans-48"/>
       <use x="55.615234" xlink:href="#LiberationSans-46"/>
       <use x="83.398438" xlink:href="#LiberationSans-54"/>
      </g>
     </g>
    </g>
    <g id="xtick_5">
     <g id="line2d_5">
      <g>
       <use style="fill:#262626;stroke:#262626;stroke-width:1.25;" x="321.84" xlink:href="#m87b022e354" y="252"/>
      </g>
     </g>
     <g id="text_5">
      <!-- 0.8 -->
      <defs>
       <path d="M 51.265625 19.1875 
Q 51.265625 9.671875 45.203125 4.34375 
Q 39.15625 -0.984375 27.828125 -0.984375 
Q 16.796875 -0.984375 10.5625 4.234375 
Q 4.34375 9.46875 4.34375 19.09375 
Q 4.34375 25.828125 8.203125 30.421875 
Q 12.0625 35.015625 18.0625 35.984375 
L 18.0625 36.1875 
Q 12.453125 37.5 9.203125 41.890625 
Q 5.953125 46.296875 5.953125 52.203125 
Q 5.953125 60.0625 11.828125 64.9375 
Q 17.71875 69.828125 27.640625 69.828125 
Q 37.796875 69.828125 43.671875 65.03125 
Q 49.5625 60.25 49.5625 52.09375 
Q 49.5625 46.1875 46.28125 41.796875 
Q 43.015625 37.40625 37.359375 36.28125 
L 37.359375 36.078125 
Q 43.953125 35.015625 47.609375 30.5 
Q 51.265625 25.984375 51.265625 19.1875 
z
M 40.4375 51.609375 
Q 40.4375 63.28125 27.640625 63.28125 
Q 21.4375 63.28125 18.1875 60.34375 
Q 14.9375 57.421875 14.9375 51.609375 
Q 14.9375 45.703125 18.28125 42.59375 
Q 21.625 39.5 27.734375 39.5 
Q 33.9375 39.5 37.1875 42.359375 
Q 40.4375 45.21875 40.4375 51.609375 
z
M 42.140625 20.015625 
Q 42.140625 26.421875 38.328125 29.65625 
Q 34.515625 32.90625 27.640625 32.90625 
Q 20.953125 32.90625 17.1875 29.40625 
Q 13.421875 25.921875 13.421875 19.828125 
Q 13.421875 5.609375 27.9375 5.609375 
Q 35.109375 5.609375 38.625 9.046875 
Q 42.140625 12.5 42.140625 20.015625 
z
" id="LiberationSans-56"/>
      </defs>
      <g style="fill:#262626;" transform="translate(310.3725 273.457344)scale(0.165 -0.165)">
       <use xlink:href="#LiberationSans-48"/>
       <use x="55.615234" xlink:href="#LiberationSans-46"/>
       <use x="83.398438" xlink:href="#LiberationSans-56"/>
      </g>
     </g>
    </g>
    <g id="xtick_6">
     <g id="line2d_6">
      <g>
       <use style="fill:#262626;stroke:#262626;stroke-width:1.25;" x="388.8" xlink:href="#m87b022e354" y="252"/>
      </g>
     </g>
     <g id="text_6">
      <!-- 1.0 -->
      <defs>
       <path d="M 7.625 0 
L 7.625 7.46875 
L 25.140625 7.46875 
L 25.140625 60.40625 
L 9.625 49.3125 
L 9.625 57.625 
L 25.875 68.796875 
L 33.984375 68.796875 
L 33.984375 7.46875 
L 50.734375 7.46875 
L 50.734375 0 
z
" id="LiberationSans-49"/>
      </defs>
      <g style="fill:#262626;" transform="translate(377.3325 273.457344)scale(0.165 -0.165)">
       <use xlink:href="#LiberationSans-49"/>
       <use x="55.615234" xlink:href="#LiberationSans-46"/>
       <use x="83.398438" xlink:href="#LiberationSans-48"/>
      </g>
     </g>
    </g>
   </g>
   <g id="matplotlib.axis_2">
    <g id="ytick_1">
     <g id="line2d_7">
      <defs>
       <path d="M 0 0 
L -6 0 
" id="m26d3bf10d4" style="stroke:#262626;stroke-width:1.25;"/>
      </defs>
      <g>
       <use style="fill:#262626;stroke:#262626;stroke-width:1.25;" x="54" xlink:href="#m26d3bf10d4" y="252"/>
      </g>
     </g>
     <g id="text_7">
      <!-- 0.0 -->
      <g style="fill:#262626;" transform="translate(21.565 257.978672)scale(0.165 -0.165)">
       <use xlink:href="#LiberationSans-48"/>
       <use x="55.615234" xlink:href="#LiberationSans-46"/>
       <use x="83.398438" xlink:href="#LiberationSans-48"/>
      </g>
     </g>
    </g>
    <g id="ytick_2">
     <g id="line2d_8">
      <g>
       <use style="fill:#262626;stroke:#262626;stroke-width:1.25;" x="54" xlink:href="#m26d3bf10d4" y="211.929952"/>
      </g>
     </g>
     <g id="text_8">
      <!-- 0.5 -->
      <defs>
       <path d="M 51.421875 22.40625 
Q 51.421875 11.53125 44.953125 5.265625 
Q 38.484375 -0.984375 27 -0.984375 
Q 17.390625 -0.984375 11.46875 3.21875 
Q 5.5625 7.421875 4 15.375 
L 12.890625 16.40625 
Q 15.671875 6.203125 27.203125 6.203125 
Q 34.28125 6.203125 38.28125 10.46875 
Q 42.28125 14.75 42.28125 22.21875 
Q 42.28125 28.71875 38.25 32.71875 
Q 34.234375 36.71875 27.390625 36.71875 
Q 23.828125 36.71875 20.75 35.59375 
Q 17.671875 34.46875 14.59375 31.78125 
L 6 31.78125 
L 8.296875 68.796875 
L 47.40625 68.796875 
L 47.40625 61.328125 
L 16.3125 61.328125 
L 14.984375 39.5 
Q 20.703125 43.890625 29.203125 43.890625 
Q 39.359375 43.890625 45.390625 37.9375 
Q 51.421875 31.984375 51.421875 22.40625 
z
" id="LiberationSans-53"/>
      </defs>
      <g style="fill:#262626;" transform="translate(21.565 217.908624)scale(0.165 -0.165)">
       <use xlink:href="#LiberationSans-48"/>
       <use x="55.615234" xlink:href="#LiberationSans-46"/>
       <use x="83.398438" xlink:href="#LiberationSans-53"/>
      </g>
     </g>
    </g>
    <g id="ytick_3">
     <g id="line2d_9">
      <g>
       <use style="fill:#262626;stroke:#262626;stroke-width:1.25;" x="54" xlink:href="#m26d3bf10d4" y="171.859903"/>
      </g>
     </g>
     <g id="text_9">
      <!-- 1.0 -->
      <g style="fill:#262626;" transform="translate(21.565 177.838575)scale(0.165 -0.165)">
       <use xlink:href="#LiberationSans-49"/>
       <use x="55.615234" xlink:href="#LiberationSans-46"/>
       <use x="83.398438" xlink:href="#LiberationSans-48"/>
      </g>
     </g>
    </g>
    <g id="ytick_4">
     <g id="line2d_10">
      <g>
       <use style="fill:#262626;stroke:#262626;stroke-width:1.25;" x="54" xlink:href="#m26d3bf10d4" y="131.789855"/>
      </g>
     </g>
     <g id="text_10">
      <!-- 1.5 -->
      <g style="fill:#262626;" transform="translate(21.565 137.768527)scale(0.165 -0.165)">
       <use xlink:href="#LiberationSans-49"/>
       <use x="55.615234" xlink:href="#LiberationSans-46"/>
       <use x="83.398438" xlink:href="#LiberationSans-53"/>
      </g>
     </g>
    </g>
    <g id="ytick_5">
     <g id="line2d_11">
      <g>
       <use style="fill:#262626;stroke:#262626;stroke-width:1.25;" x="54" xlink:href="#m26d3bf10d4" y="91.719807"/>
      </g>
     </g>
     <g id="text_11">
      <!-- 2.0 -->
      <g style="fill:#262626;" transform="translate(21.565 97.698479)scale(0.165 -0.165)">
       <use xlink:href="#LiberationSans-50"/>
       <use x="55.615234" xlink:href="#LiberationSans-46"/>
       <use x="83.398438" xlink:href="#LiberationSans-48"/>
      </g>
     </g>
    </g>
    <g id="ytick_6">
     <g id="line2d_12">
      <g>
       <use style="fill:#262626;stroke:#262626;stroke-width:1.25;" x="54" xlink:href="#m26d3bf10d4" y="51.649759"/>
      </g>
     </g>
     <g id="text_12">
      <!-- 2.5 -->
      <g style="fill:#262626;" transform="translate(21.565 57.628431)scale(0.165 -0.165)">
       <use xlink:href="#LiberationSans-50"/>
       <use x="55.615234" xlink:href="#LiberationSans-46"/>
       <use x="83.398438" xlink:href="#LiberationSans-53"/>
      </g>
     </g>
    </g>
   </g>
   <g id="PolyCollection_1">
    <defs>
     <path d="M 6.991269 -36.222664 
L 6.991269 -36 
L 10.01954 -36 
L 13.047811 -36 
L 16.076082 -36 
L 19.104352 -36 
L 22.132623 -36 
L 25.160894 -36 
L 28.189164 -36 
L 31.217435 -36 
L 34.245706 -36 
L 37.273977 -36 
L 40.302247 -36 
L 43.330518 -36 
L 46.358789 -36 
L 49.387059 -36 
L 52.41533 -36 
L 55.443601 -36 
L 58.471872 -36 
L 61.500142 -36 
L 64.528413 -36 
L 67.556684 -36 
L 70.584954 -36 
L 73.613225 -36 
L 76.641496 -36 
L 79.669767 -36 
L 82.698037 -36 
L 85.726308 -36 
L 88.754579 -36 
L 91.782849 -36 
L 94.81112 -36 
L 97.839391 -36 
L 100.867662 -36 
L 103.895932 -36 
L 106.924203 -36 
L 109.952474 -36 
L 112.980745 -36 
L 116.009015 -36 
L 119.037286 -36 
L 122.065557 -36 
L 125.093827 -36 
L 128.122098 -36 
L 131.150369 -36 
L 134.17864 -36 
L 137.20691 -36 
L 140.235181 -36 
L 143.263452 -36 
L 146.291722 -36 
L 149.319993 -36 
L 152.348264 -36 
L 155.376535 -36 
L 158.404805 -36 
L 161.433076 -36 
L 164.461347 -36 
L 167.489617 -36 
L 170.517888 -36 
L 173.546159 -36 
L 176.57443 -36 
L 179.6027 -36 
L 182.630971 -36 
L 185.659242 -36 
L 188.687512 -36 
L 191.715783 -36 
L 194.744054 -36 
L 197.772325 -36 
L 200.800595 -36 
L 203.828866 -36 
L 206.857137 -36 
L 209.885408 -36 
L 212.913678 -36 
L 215.941949 -36 
L 218.97022 -36 
L 221.99849 -36 
L 225.026761 -36 
L 228.055032 -36 
L 231.083303 -36 
L 234.111573 -36 
L 237.139844 -36 
L 240.168115 -36 
L 243.196385 -36 
L 246.224656 -36 
L 249.252927 -36 
L 252.281198 -36 
L 255.309468 -36 
L 258.337739 -36 
L 261.36601 -36 
L 264.39428 -36 
L 267.422551 -36 
L 270.450822 -36 
L 273.479093 -36 
L 276.507363 -36 
L 279.535634 -36 
L 282.563905 -36 
L 285.592175 -36 
L 288.620446 -36 
L 291.648717 -36 
L 294.676988 -36 
L 297.705258 -36 
L 300.733529 -36 
L 303.7618 -36 
L 306.790071 -36 
L 309.818341 -36 
L 312.846612 -36 
L 315.874883 -36 
L 318.903153 -36 
L 321.931424 -36 
L 324.959695 -36 
L 327.987966 -36 
L 331.016236 -36 
L 334.044507 -36 
L 337.072778 -36 
L 340.101048 -36 
L 343.129319 -36 
L 346.15759 -36 
L 349.185861 -36 
L 352.214131 -36 
L 355.242402 -36 
L 358.270673 -36 
L 361.298943 -36 
L 364.327214 -36 
L 367.355485 -36 
L 370.383756 -36 
L 373.412026 -36 
L 376.440297 -36 
L 379.468568 -36 
L 382.496838 -36 
L 385.525109 -36 
L 388.55338 -36 
L 391.581651 -36 
L 391.581651 -36.190714 
L 391.581651 -36.190714 
L 388.55338 -36.197062 
L 385.525109 -36.240067 
L 382.496838 -36.321996 
L 379.468568 -36.448486 
L 376.440297 -36.627974 
L 373.412026 -36.871045 
L 370.383756 -37.189636 
L 367.355485 -37.596066 
L 364.327214 -38.101871 
L 361.298943 -38.716514 
L 358.270673 -39.446046 
L 355.242402 -40.29187 
L 352.214131 -41.249764 
L 349.185861 -42.309348 
L 346.15759 -43.454111 
L 343.129319 -44.662086 
L 340.101048 -45.907129 
L 337.072778 -47.160691 
L 334.044507 -48.393842 
L 331.016236 -49.579283 
L 327.987966 -50.693015 
L 324.959695 -51.715457 
L 321.931424 -52.631828 
L 318.903153 -53.431834 
L 315.874883 -54.108785 
L 312.846612 -54.658453 
L 309.818341 -55.078018 
L 306.790071 -55.36545 
L 303.7618 -55.519575 
L 300.733529 -55.540926 
L 297.705258 -55.43328 
L 294.676988 -55.205595 
L 291.648717 -54.873974 
L 288.620446 -54.463231 
L 285.592175 -54.007712 
L 282.563905 -53.551163 
L 279.535634 -53.145634 
L 276.507363 -52.849567 
L 273.479093 -52.725346 
L 270.450822 -52.836613 
L 267.422551 -53.245629 
L 264.39428 -54.010809 
L 261.36601 -55.184486 
L 258.337739 -56.810785 
L 255.309468 -58.923548 
L 252.281198 -61.544217 
L 249.252927 -64.679798 
L 246.224656 -68.321141 
L 243.196385 -72.441974 
L 240.168115 -76.99918 
L 237.139844 -81.934785 
L 234.111573 -87.179918 
L 231.083303 -92.660727 
L 228.055032 -98.305831 
L 225.026761 -104.054508 
L 221.99849 -109.864534 
L 218.97022 -115.718424 
L 215.941949 -121.626874 
L 212.913678 -127.628473 
L 209.885408 -133.785196 
L 206.857137 -140.173746 
L 203.828866 -146.873442 
L 200.800595 -153.951928 
L 197.772325 -161.45039 
L 194.744054 -169.370238 
L 191.715783 -177.663151 
L 188.687512 -186.226135 
L 185.659242 -194.902671 
L 182.630971 -203.490345 
L 179.6027 -211.75449 
L 176.57443 -219.446615 
L 173.546159 -226.32566 
L 170.517888 -232.179695 
L 167.489617 -236.845531 
L 164.461347 -240.223866 
L 161.433076 -242.288106 
L 158.404805 -243.085714 
L 155.376535 -242.731869 
L 152.348264 -241.396117 
L 149.319993 -239.283569 
L 146.291722 -236.612858 
L 143.263452 -233.593451 
L 140.235181 -230.404966 
L 137.20691 -227.18088 
L 134.17864 -223.998423 
L 131.150369 -220.875627 
L 128.122098 -217.775567 
L 125.093827 -214.616887 
L 122.065557 -211.288907 
L 119.037286 -207.669063 
L 116.009015 -203.640265 
L 112.980745 -199.105897 
L 109.952474 -194.000725 
L 106.924203 -188.296714 
L 103.895932 -182.003618 
L 100.867662 -175.165 
L 97.839391 -167.850978 
L 94.81112 -160.14932 
L 91.782849 -152.156527 
L 88.754579 -143.970277 
L 85.726308 -135.684099 
L 82.698037 -127.38458 
L 79.669767 -119.15084 
L 76.641496 -111.055605 
L 73.613225 -103.166979 
L 70.584954 -95.550048 
L 67.556684 -88.267631 
L 64.528413 -81.379808 
L 61.500142 -74.94224 
L 58.471872 -69.003571 
L 55.443601 -63.602458 
L 52.41533 -58.764815 
L 49.387059 -54.501809 
L 46.358789 -50.809004 
L 43.330518 -47.66679 
L 40.302247 -45.042067 
L 37.273977 -42.890904 
L 34.245706 -41.16183 
L 31.217435 -39.799333 
L 28.189164 -38.747199 
L 25.160894 -37.951379 
L 22.132623 -37.362217 
L 19.104352 -36.93596 
L 16.076082 -36.63558 
L 13.047811 -36.431025 
L 10.01954 -36.299031 
L 6.991269 -36.222664 
z
" id="m834103cc7a" style="stroke:#ffffff;stroke-opacity:0.25;"/>
    </defs>
    <g clip-path="url(#pa863bb6036)">
     <use style="fill:#c2c5e2;fill-opacity:0.25;stroke:#ffffff;stroke-opacity:0.25;" x="0" xlink:href="#m834103cc7a" y="288"/>
    </g>
   </g>
   <g id="PolyCollection_2">
    <path clip-path="url(#pa863bb6036)" d="M -6.642196 251.82986 
L -6.642196 252 
L -3.023036 252 
L 0.596124 252 
L 4.215283 252 
L 7.834443 252 
L 11.453603 252 
L 15.072762 252 
L 18.691922 252 
L 22.311081 252 
L 25.930241 252 
L 29.549401 252 
L 33.16856 252 
L 36.78772 252 
L 40.406879 252 
L 44.026039 252 
L 47.645199 252 
L 51.264358 252 
L 54.883518 252 
L 58.502678 252 
L 62.121837 252 
L 65.740997 252 
L 69.360156 252 
L 72.979316 252 
L 76.598476 252 
L 80.217635 252 
L 83.836795 252 
L 87.455954 252 
L 91.075114 252 
L 94.694274 252 
L 98.313433 252 
L 101.932593 252 
L 105.551753 252 
L 109.170912 252 
L 112.790072 252 
L 116.409231 252 
L 120.028391 252 
L 123.647551 252 
L 127.26671 252 
L 130.88587 252 
L 134.505029 252 
L 138.124189 252 
L 141.743349 252 
L 145.362508 252 
L 148.981668 252 
L 152.600828 252 
L 156.219987 252 
L 159.839147 252 
L 163.458306 252 
L 167.077466 252 
L 170.696626 252 
L 174.315785 252 
L 177.934945 252 
L 181.554104 252 
L 185.173264 252 
L 188.792424 252 
L 192.411583 252 
L 196.030743 252 
L 199.649903 252 
L 203.269062 252 
L 206.888222 252 
L 210.507381 252 
L 214.126541 252 
L 217.745701 252 
L 221.36486 252 
L 224.98402 252 
L 228.603179 252 
L 232.222339 252 
L 235.841499 252 
L 239.460658 252 
L 243.079818 252 
L 246.698977 252 
L 250.318137 252 
L 253.937297 252 
L 257.556456 252 
L 261.175616 252 
L 264.794776 252 
L 268.413935 252 
L 272.033095 252 
L 275.652254 252 
L 279.271414 252 
L 282.890574 252 
L 286.509733 252 
L 290.128893 252 
L 293.748052 252 
L 297.367212 252 
L 300.986372 252 
L 304.605531 252 
L 308.224691 252 
L 311.843851 252 
L 315.46301 252 
L 319.08217 252 
L 322.701329 252 
L 326.320489 252 
L 329.939649 252 
L 333.558808 252 
L 337.177968 252 
L 340.797127 252 
L 344.416287 252 
L 348.035447 252 
L 351.654606 252 
L 355.273766 252 
L 358.892926 252 
L 362.512085 252 
L 366.131245 252 
L 369.750404 252 
L 373.369564 252 
L 376.988724 252 
L 380.607883 252 
L 384.227043 252 
L 387.846202 252 
L 391.465362 252 
L 395.084522 252 
L 398.703681 252 
L 402.322841 252 
L 405.942001 252 
L 409.56116 252 
L 413.18032 252 
L 416.799479 252 
L 420.418639 252 
L 424.037799 252 
L 427.656958 252 
L 431.276118 252 
L 434.895277 252 
L 438.514437 252 
L 442.133597 252 
L 445.752756 252 
L 449.371916 252 
L 452.991076 252 
L 452.991076 251.839967 
L 452.991076 251.839967 
L 449.371916 251.827353 
L 445.752756 251.791772 
L 442.133597 251.731198 
L 438.514437 251.641935 
L 434.895277 251.518712 
L 431.276118 251.354787 
L 427.656958 251.142072 
L 424.037799 250.871283 
L 420.418639 250.532135 
L 416.799479 250.113578 
L 413.18032 249.604062 
L 409.56116 248.991845 
L 405.942001 248.2653 
L 402.322841 247.413223 
L 398.703681 246.425117 
L 395.084522 245.291444 
L 391.465362 244.003824 
L 387.846202 242.555197 
L 384.227043 240.93994 
L 380.607883 239.153966 
L 376.988724 237.194809 
L 373.369564 235.061712 
L 369.750404 232.755738 
L 366.131245 230.279884 
L 362.512085 227.639207 
L 358.892926 224.840924 
L 355.273766 221.894474 
L 351.654606 218.811493 
L 348.035447 215.605698 
L 344.416287 212.292641 
L 340.797127 208.88935 
L 337.177968 205.413865 
L 333.558808 201.884701 
L 329.939649 198.320285 
L 326.320489 194.738422 
L 322.701329 191.155837 
L 319.08217 187.587846 
L 315.46301 184.048176 
L 311.843851 180.548946 
L 308.224691 177.100813 
L 304.605531 173.713216 
L 300.986372 170.394701 
L 297.367212 167.153239 
L 293.748052 163.996484 
L 290.128893 160.9319 
L 286.509733 157.96671 
L 282.890574 155.107651 
L 279.271414 152.360535 
L 275.652254 149.729658 
L 272.033095 147.217132 
L 268.413935 144.822239 
L 264.794776 142.540933 
L 261.175616 140.3656 
L 257.556456 138.285203 
L 253.937297 136.285867 
L 250.318137 134.351962 
L 246.698977 132.467633 
L 243.079818 130.618694 
L 239.460658 128.794738 
L 235.841499 126.991252 
L 232.222339 125.211521 
L 228.603179 123.46808 
L 224.98402 121.783521 
L 221.36486 120.1905 
L 217.745701 118.730878 
L 214.126541 117.45401 
L 210.507381 116.414284 
L 206.888222 115.668089 
L 203.269062 115.270448 
L 199.649903 115.27158 
L 196.030743 115.713647 
L 192.411583 116.627922 
L 188.792424 118.032553 
L 185.173264 119.931068 
L 181.554104 122.311653 
L 177.934945 125.147249 
L 174.315785 128.396418 
L 170.696626 132.004928 
L 167.077466 135.907972 
L 163.458306 140.032952 
L 159.839147 144.30269 
L 156.219987 148.638972 
L 152.600828 152.966249 
L 148.981668 157.21533 
L 145.362508 161.326836 
L 141.743349 165.254198 
L 138.124189 168.965958 
L 134.505029 172.447154 
L 130.88587 175.699644 
L 127.26671 178.741263 
L 123.647551 181.603849 
L 120.028391 184.330239 
L 116.409231 186.970464 
L 112.790072 189.577447 
L 109.170912 192.202567 
L 105.551753 194.891453 
L 101.932593 197.680369 
L 98.313433 200.593482 
L 94.694274 203.641197 
L 91.075114 206.819669 
L 87.455954 210.111461 
L 83.836795 213.487222 
L 80.217635 216.908173 
L 76.598476 220.32915 
L 72.979316 223.701883 
L 69.360156 226.97825 
L 65.740997 230.113235 
L 62.121837 233.067395 
L 58.502678 235.808696 
L 54.883518 238.313652 
L 51.264358 240.567776 
L 47.645199 242.565389 
L 44.026039 244.308903 
L 40.406879 245.807707 
L 36.78772 247.076787 
L 33.16856 248.135242 
L 29.549401 249.004795 
L 25.930241 249.708421 
L 22.311081 250.269148 
L 18.691922 250.709092 
L 15.072762 251.048716 
L 11.453603 251.306331 
L 7.834443 251.497799 
L 4.215283 251.636405 
L 0.596124 251.732859 
L -3.023036 251.795386 
L -6.642196 251.82986 
z
" style="fill:#42455e;fill-opacity:0.25;stroke:#ffffff;stroke-opacity:0.25;"/>
   </g>
   <g id="PolyCollection_3">
    <path clip-path="url(#pa863bb6036)" d="M -47.89845 251.660174 
L -47.89845 252 
L -43.447423 252 
L -38.996396 252 
L -34.545368 252 
L -30.094341 252 
L -25.643314 252 
L -21.192287 252 
L -16.741259 252 
L -12.290232 252 
L -7.839205 252 
L -3.388178 252 
L 1.06285 252 
L 5.513877 252 
L 9.964904 252 
L 14.415931 252 
L 18.866959 252 
L 23.317986 252 
L 27.769013 252 
L 32.22004 252 
L 36.671068 252 
L 41.122095 252 
L 45.573122 252 
L 50.024149 252 
L 54.475177 252 
L 58.926204 252 
L 63.377231 252 
L 67.828258 252 
L 72.279286 252 
L 76.730313 252 
L 81.18134 252 
L 85.632367 252 
L 90.083395 252 
L 94.534422 252 
L 98.985449 252 
L 103.436476 252 
L 107.887503 252 
L 112.338531 252 
L 116.789558 252 
L 121.240585 252 
L 125.691612 252 
L 130.14264 252 
L 134.593667 252 
L 139.044694 252 
L 143.495721 252 
L 147.946749 252 
L 152.397776 252 
L 156.848803 252 
L 161.29983 252 
L 165.750858 252 
L 170.201885 252 
L 174.652912 252 
L 179.103939 252 
L 183.554967 252 
L 188.005994 252 
L 192.457021 252 
L 196.908048 252 
L 201.359076 252 
L 205.810103 252 
L 210.26113 252 
L 214.712157 252 
L 219.163185 252 
L 223.614212 252 
L 228.065239 252 
L 232.516266 252 
L 236.967294 252 
L 241.418321 252 
L 245.869348 252 
L 250.320375 252 
L 254.771403 252 
L 259.22243 252 
L 263.673457 252 
L 268.124484 252 
L 272.575512 252 
L 277.026539 252 
L 281.477566 252 
L 285.928593 252 
L 290.379621 252 
L 294.830648 252 
L 299.281675 252 
L 303.732702 252 
L 308.18373 252 
L 312.634757 252 
L 317.085784 252 
L 321.536811 252 
L 325.987839 252 
L 330.438866 252 
L 334.889893 252 
L 339.34092 252 
L 343.791948 252 
L 348.242975 252 
L 352.694002 252 
L 357.145029 252 
L 361.596057 252 
L 366.047084 252 
L 370.498111 252 
L 374.949138 252 
L 379.400165 252 
L 383.851193 252 
L 388.30222 252 
L 392.753247 252 
L 397.204274 252 
L 401.655302 252 
L 406.106329 252 
L 410.557356 252 
L 415.008383 252 
L 419.459411 252 
L 423.910438 252 
L 428.361465 252 
L 432.812492 252 
L 437.26352 252 
L 441.714547 252 
L 446.165574 252 
L 450.616601 252 
L 455.067629 252 
L 459.518656 252 
L 463.969683 252 
L 468.42071 252 
L 472.871738 252 
L 477.322765 252 
L 481.773792 252 
L 486.224819 252 
L 490.675847 252 
L 495.126874 252 
L 499.577901 252 
L 504.028928 252 
L 508.479956 252 
L 512.930983 252 
L 517.38201 252 
L 517.38201 251.632189 
L 517.38201 251.632189 
L 512.930983 251.570388 
L 508.479956 251.471009 
L 504.028928 251.328414 
L 499.577901 251.135029 
L 495.126874 250.881308 
L 490.675847 250.55571 
L 486.224819 250.14473 
L 481.773792 249.632979 
L 477.322765 249.003355 
L 472.871738 248.237305 
L 468.42071 247.315202 
L 463.969683 246.216846 
L 459.518656 244.922099 
L 455.067629 243.411641 
L 450.616601 241.66784 
L 446.165574 239.675718 
L 441.714547 237.423967 
L 437.26352 234.905984 
L 432.812492 232.120857 
L 428.361465 229.074262 
L 423.910438 225.779187 
L 419.459411 222.256435 
L 415.008383 218.534836 
L 410.557356 214.65114 
L 406.106329 210.649524 
L 401.655302 206.580735 
L 397.204274 202.500845 
L 392.753247 198.469654 
L 388.30222 194.548807 
L 383.851193 190.799668 
L 379.400165 187.281076 
L 374.949138 184.047061 
L 370.498111 181.144656 
L 366.047084 178.611895 
L 361.596057 176.476141 
L 357.145029 174.752806 
L 352.694002 173.444565 
L 348.242975 172.541105 
L 343.791948 172.019443 
L 339.34092 171.844798 
L 334.889893 171.971993 
L 330.438866 172.347319 
L 325.987839 172.910764 
L 321.536811 173.598523 
L 317.085784 174.345648 
L 312.634757 175.088716 
L 308.18373 175.768399 
L 303.732702 176.331806 
L 299.281675 176.734496 
L 294.830648 176.942078 
L 290.379621 176.931325 
L 285.928593 176.690771 
L 281.477566 176.220769 
L 277.026539 175.533026 
L 272.575512 174.649643 
L 268.124484 173.601727 
L 263.673457 172.427643 
L 259.22243 171.171002 
L 254.771403 169.878488 
L 250.320375 168.59762 
L 245.869348 167.374571 
L 241.418321 166.252145 
L 236.967294 165.267993 
L 232.516266 164.453168 
L 228.065239 163.831061 
L 223.614212 163.416779 
L 219.163185 163.216968 
L 214.712157 163.230082 
L 210.26113 163.447073 
L 205.810103 163.852445 
L 201.359076 164.425613 
L 196.908048 165.142473 
L 192.457021 165.9771 
L 188.005994 166.903475 
L 183.554967 167.89714 
L 179.103939 168.936697 
L 174.652912 170.00507 
L 170.201885 171.090461 
L 165.750858 172.186964 
L 161.29983 173.2948 
L 156.848803 174.42017 
L 152.397776 175.574752 
L 147.946749 176.77486 
L 143.495721 178.040327 
L 139.044694 179.393184 
L 134.593667 180.856197 
L 130.14264 182.451364 
L 125.691612 184.198436 
L 121.240585 186.11357 
L 116.789558 188.208159 
L 112.338531 190.48793 
L 107.887503 192.952331 
L 103.436476 195.594258 
L 98.985449 198.400117 
L 94.534422 201.350217 
L 90.083395 204.419456 
L 85.632367 207.578275 
L 81.18134 210.79379 
L 76.730313 214.031064 
L 72.279286 217.254428 
L 67.828258 220.428781 
L 63.377231 223.520808 
L 58.926204 226.500054 
L 54.475177 229.339811 
L 50.024149 232.017776 
L 45.573122 234.516483 
L 41.122095 236.82349 
L 36.671068 238.931341 
L 32.22004 240.837331 
L 27.769013 242.543101 
L 23.317986 244.054104 
L 18.866959 245.378983 
L 14.415931 246.528904 
L 9.964904 247.516879 
L 5.513877 248.35711 
L 1.06285 249.064385 
L -3.388178 249.65354 
L -7.839205 250.138999 
L -12.290232 250.534403 
L -16.741259 250.852308 
L -21.192287 251.103974 
L -25.643314 251.299207 
L -30.094341 251.446256 
L -34.545368 251.551751 
L -38.996396 251.620663 
L -43.447423 251.656278 
L -47.89845 251.660174 
z
" style="fill:#cb8944;fill-opacity:0.25;stroke:#ffffff;stroke-opacity:0.25;"/>
   </g>
   <g id="line2d_13">
    <path clip-path="url(#pa863bb6036)" d="M 6.991269 251.777336 
L 13.047811 251.568975 
L 19.104352 251.06404 
L 22.132623 250.637783 
L 25.160894 250.048621 
L 28.189164 249.252801 
L 31.217435 248.200667 
L 34.245706 246.83817 
L 37.273977 245.109096 
L 40.302247 242.957933 
L 43.330518 240.33321 
L 46.358789 237.190996 
L 49.387059 233.498191 
L 52.41533 229.235185 
L 55.443601 224.397542 
L 58.471872 218.996429 
L 61.500142 213.05776 
L 64.528413 206.620192 
L 67.556684 199.732369 
L 70.584954 192.449952 
L 76.641496 176.944395 
L 82.698037 160.61542 
L 91.782849 135.843473 
L 97.839391 120.149022 
L 100.867662 112.835 
L 103.895932 105.996382 
L 106.924203 99.703286 
L 109.952474 93.999275 
L 112.980745 88.894103 
L 116.009015 84.359735 
L 119.037286 80.330937 
L 122.065557 76.711093 
L 125.093827 73.383113 
L 146.291722 51.387142 
L 149.319993 48.716431 
L 152.348264 46.603883 
L 155.376535 45.268131 
L 158.404805 44.914286 
L 161.433076 45.711894 
L 164.461347 47.776134 
L 167.489617 51.154469 
L 170.517888 55.820305 
L 173.546159 61.67434 
L 176.57443 68.553385 
L 179.6027 76.24551 
L 182.630971 84.509655 
L 194.744054 118.629762 
L 197.772325 126.54961 
L 200.800595 134.048072 
L 203.828866 141.126558 
L 206.857137 147.826254 
L 212.913678 160.371527 
L 221.99849 178.135466 
L 231.083303 195.339273 
L 234.111573 200.820082 
L 237.139844 206.065215 
L 240.168115 211.00082 
L 243.196385 215.558026 
L 246.224656 219.678859 
L 249.252927 223.320202 
L 252.281198 226.455783 
L 255.309468 229.076452 
L 258.337739 231.189215 
L 261.36601 232.815514 
L 264.39428 233.989191 
L 267.422551 234.754371 
L 270.450822 235.163387 
L 273.479093 235.274654 
L 276.507363 235.150433 
L 282.563905 234.448837 
L 291.648717 233.126026 
L 297.705258 232.56672 
L 300.733529 232.459074 
L 303.7618 232.480425 
L 306.790071 232.63455 
L 309.818341 232.921982 
L 312.846612 233.341547 
L 315.874883 233.891215 
L 318.903153 234.568166 
L 321.931424 235.368172 
L 327.987966 237.306985 
L 334.044507 239.606158 
L 349.185861 245.690652 
L 355.242402 247.70813 
L 358.270673 248.553954 
L 361.298943 249.283486 
L 367.355485 250.403934 
L 373.412026 251.128955 
L 379.468568 251.551514 
L 385.525109 251.759933 
L 391.581651 251.809286 
L 391.581651 251.809286 
" style="fill:none;stroke:#c2c5e2;stroke-linecap:round;stroke-width:1.5;"/>
   </g>
   <g id="line2d_14">
    <path clip-path="url(#pa863bb6036)" d="M -1 251.760435 
L 7.834443 251.497799 
L 15.072762 251.048716 
L 22.311081 250.269148 
L 25.930241 249.708421 
L 29.549401 249.004795 
L 33.16856 248.135242 
L 36.78772 247.076787 
L 40.406879 245.807707 
L 44.026039 244.308903 
L 47.645199 242.565389 
L 51.264358 240.567776 
L 54.883518 238.313652 
L 58.502678 235.808696 
L 62.121837 233.067395 
L 65.740997 230.113235 
L 72.979316 223.701883 
L 91.075114 206.819669 
L 98.313433 200.593482 
L 105.551753 194.891453 
L 112.790072 189.577447 
L 120.028391 184.330239 
L 127.26671 178.741263 
L 130.88587 175.699644 
L 134.505029 172.447154 
L 138.124189 168.965958 
L 141.743349 165.254198 
L 145.362508 161.326836 
L 152.600828 152.966249 
L 163.458306 140.032952 
L 167.077466 135.907972 
L 170.696626 132.004928 
L 174.315785 128.396418 
L 177.934945 125.147249 
L 181.554104 122.311653 
L 185.173264 119.931068 
L 188.792424 118.032553 
L 192.411583 116.627922 
L 196.030743 115.713647 
L 199.649903 115.27158 
L 203.269062 115.270448 
L 206.888222 115.668089 
L 210.507381 116.414284 
L 214.126541 117.45401 
L 217.745701 118.730878 
L 221.36486 120.1905 
L 228.603179 123.46808 
L 239.460658 128.794738 
L 250.318137 134.351962 
L 257.556456 138.285203 
L 264.794776 142.540933 
L 272.033095 147.217132 
L 279.271414 152.360535 
L 286.509733 157.96671 
L 293.748052 163.996484 
L 300.986372 170.394701 
L 308.224691 177.100813 
L 319.08217 187.587846 
L 340.797127 208.88935 
L 348.035447 215.605698 
L 355.273766 221.894474 
L 358.892926 224.840924 
L 362.512085 227.639207 
L 366.131245 230.279884 
L 369.750404 232.755738 
L 373.369564 235.061712 
L 376.988724 237.194809 
L 380.607883 239.153966 
L 384.227043 240.93994 
L 387.846202 242.555197 
L 391.465362 244.003824 
L 395.084522 245.291444 
L 398.703681 246.425117 
L 402.322841 247.413223 
L 405.942001 248.2653 
L 409.56116 248.991845 
L 416.799479 250.113578 
L 424.037799 250.871283 
L 433 251.432868 
L 433 251.432868 
" style="fill:none;stroke:#42455e;stroke-linecap:round;stroke-width:1.5;"/>
   </g>
   <g id="line2d_15">
    <path clip-path="url(#pa863bb6036)" d="M -1 249.337432 
L 1.06285 249.064385 
L 5.513877 248.35711 
L 9.964904 247.516879 
L 14.415931 246.528904 
L 18.866959 245.378983 
L 23.317986 244.054104 
L 27.769013 242.543101 
L 32.22004 240.837331 
L 36.671068 238.931341 
L 41.122095 236.82349 
L 45.573122 234.516483 
L 50.024149 232.017776 
L 54.475177 229.339811 
L 58.926204 226.500054 
L 67.828258 220.428781 
L 81.18134 210.79379 
L 90.083395 204.419456 
L 98.985449 198.400117 
L 103.436476 195.594258 
L 107.887503 192.952331 
L 112.338531 190.48793 
L 116.789558 188.208159 
L 121.240585 186.11357 
L 125.691612 184.198436 
L 130.14264 182.451364 
L 134.593667 180.856197 
L 143.495721 178.040327 
L 152.397776 175.574752 
L 165.750858 172.186964 
L 183.554967 167.89714 
L 192.457021 165.9771 
L 196.908048 165.142473 
L 201.359076 164.425613 
L 205.810103 163.852445 
L 210.26113 163.447073 
L 214.712157 163.230082 
L 219.163185 163.216968 
L 223.614212 163.416779 
L 228.065239 163.831061 
L 232.516266 164.453168 
L 236.967294 165.267993 
L 241.418321 166.252145 
L 250.320375 168.59762 
L 263.673457 172.427643 
L 268.124484 173.601727 
L 272.575512 174.649643 
L 277.026539 175.533026 
L 281.477566 176.220769 
L 285.928593 176.690771 
L 290.379621 176.931325 
L 294.830648 176.942078 
L 299.281675 176.734496 
L 303.732702 176.331806 
L 308.18373 175.768399 
L 317.085784 174.345648 
L 325.987839 172.910764 
L 330.438866 172.347319 
L 334.889893 171.971993 
L 339.34092 171.844798 
L 343.791948 172.019443 
L 348.242975 172.541105 
L 352.694002 173.444565 
L 357.145029 174.752806 
L 361.596057 176.476141 
L 366.047084 178.611895 
L 370.498111 181.144656 
L 374.949138 184.047061 
L 379.400165 187.281076 
L 383.851193 190.799668 
L 388.30222 194.548807 
L 397.204274 202.500845 
L 410.557356 214.65114 
L 415.008383 218.534836 
L 419.459411 222.256435 
L 423.910438 225.779187 
L 428.361465 229.074262 
L 433 232.238185 
L 433 232.238185 
" style="fill:none;stroke:#cb8944;stroke-linecap:round;stroke-width:1.5;"/>
   </g>
   <g id="patch_3">
    <path d="M 54 252 
L 54 34.56 
" style="fill:none;stroke:#262626;stroke-linecap:square;stroke-linejoin:miter;stroke-width:1.25;"/>
   </g>
   <g id="patch_4">
    <path d="M 54 252 
L 388.8 252 
" style="fill:none;stroke:#262626;stroke-linecap:square;stroke-linejoin:miter;stroke-width:1.25;"/>
   </g>
  </g>
 </g>
 <defs>
  <clipPath id="pa863bb6036">
   <rect height="217.44" width="334.8" x="54" y="34.56"/>
  </clipPath>
 </defs>
</svg>
